<svg width="305" height="526" viewBox="0 0 305 526" fill="none" xmlns="http://www.w3.org/2000/svg">
<g clip-path="url(#clip0_2146_276)">
<path d="M43.1777 524.229C43.1777 524.889 43.7077 525.419 44.3677 525.419H303.208C303.868 525.419 304.398 524.889 304.398 524.229C304.398 523.569 303.868 523.039 303.208 523.039H44.3677C43.7077 523.039 43.1777 523.569 43.1777 524.229Z" fill="#484565"/>
<path d="M179.299 0.328464C179.299 0.328464 157.389 -4.98154 144.129 27.0985C133.079 53.8385 125.239 68.1185 134.209 77.8185C137.419 81.2885 141.999 83.1585 146.719 83.3185L197.219 84.9785C197.219 84.9785 215.759 36.3585 204.489 18.7785C193.219 1.18846 179.299 0.328464 179.299 0.328464Z" fill="#2F2E41"/>
<path d="M189.759 80.937L165.469 88.927V53.957H187.509L189.759 80.937Z" fill="#F6A6A9"/>
<path d="M171.118 504.689H148.358L135.168 383.109H170.338L171.118 504.689Z" fill="#F6A6A9"/>
<path d="M126.198 524.229C123.808 524.229 121.678 524.169 120.068 524.019C114.018 523.469 108.258 519.009 105.358 516.399C104.058 515.229 103.638 513.359 104.318 511.749C104.808 510.589 105.778 509.729 106.978 509.389L122.948 504.829L148.808 487.379L149.098 487.899C149.208 488.089 151.748 492.669 152.598 495.759C152.918 496.939 152.838 497.919 152.348 498.669C152.008 499.199 151.538 499.499 151.148 499.669C151.618 500.159 153.088 501.149 157.598 501.869C164.198 502.919 165.578 496.079 165.638 495.789L165.678 495.559L165.878 495.429C169.018 493.409 170.948 492.489 171.618 492.679C172.038 492.799 172.728 493.009 174.598 511.629C174.788 512.209 176.098 516.499 175.208 520.589C174.238 525.049 154.768 523.509 150.868 523.159C150.758 523.169 136.178 524.209 126.188 524.209V524.229H126.198Z" fill="#2F2E41"/>
<path d="M222.518 504.689H199.768L186.568 383.109H221.738L222.518 504.689Z" fill="#F6A6A9"/>
<path d="M177.608 524.229C175.218 524.229 173.088 524.169 171.478 524.019C165.428 523.469 159.668 519.009 156.768 516.399C155.468 515.229 155.048 513.359 155.728 511.749C156.218 510.589 157.188 509.729 158.388 509.389L174.358 504.829L200.218 487.379L200.508 487.899C200.618 488.089 203.158 492.669 204.008 495.759C204.328 496.939 204.248 497.919 203.758 498.669C203.418 499.199 202.948 499.499 202.558 499.669C203.028 500.159 204.498 501.149 209.008 501.869C215.608 502.919 216.988 496.079 217.048 495.789L217.088 495.559L217.288 495.429C220.428 493.409 222.358 492.489 223.028 492.679C223.448 492.799 224.138 493.009 226.008 511.629C226.198 512.209 227.508 516.499 226.618 520.589C225.648 525.049 206.178 523.509 202.278 523.159C202.168 523.169 187.588 524.209 177.598 524.209V524.229H177.608Z" fill="#2F2E41"/>
<path d="M229.068 206.067H118.508L158.248 75.2773H202.328L229.068 206.067Z" fill="#DDDEDF"/>
<path d="M115.498 279.457C114.178 287.467 108.838 293.217 103.568 292.287C98.2979 291.357 95.0879 284.117 96.4079 276.107C96.8879 272.897 98.1579 269.867 100.108 267.257L106.128 233.387L122.518 236.817L114.838 269.837C115.848 272.957 116.078 276.257 115.508 279.457L115.498 279.457Z" fill="#F6A6A9"/>
<path d="M165.208 75.2973C165.208 75.2973 137.748 74.5773 134.858 81.7973C131.968 89.0273 98.0078 261.007 98.0078 261.007H120.408L165.208 75.2973Z" fill="#DDDEDF"/>
<path d="M171.038 62.2169C184.409 62.2169 195.248 51.3777 195.248 38.0069C195.248 24.6361 184.409 13.7969 171.038 13.7969C157.667 13.7969 146.828 24.6361 146.828 38.0069C146.828 51.3777 157.667 62.2169 171.038 62.2169Z" fill="#F6A6A9"/>
<path d="M174.838 8.31859C174.838 8.31859 143.758 54.5486 148.988 83.3886L130.908 72.0586C130.908 72.0586 143.638 13.6786 162.608 9.14859L174.838 8.30859L174.838 8.31859Z" fill="#2F2E41"/>
<path d="M206.089 206.07H133.539L93.8393 369C93.1093 375.88 97.4693 382.3 104.159 384.09C125.939 389.92 178.199 398.19 257.309 375.17C264.919 372.96 269.239 364.93 266.849 357.37L206.089 206.08L206.089 206.07Z" fill="#2F2E41"/>
<path d="M174.039 87.5186L194.139 77.2086C203.329 73.8086 213.579 74.9486 221.799 80.2986C246.799 96.5586 296.079 132.409 274.899 150.129C246.989 173.489 209.259 132.059 209.259 132.059L174.039 87.5186Z" fill="#DDDEDF"/>
<path d="M105.212 112.474L105.121 112.564C104.297 111.631 103.45 110.711 102.557 109.819C79.0954 86.357 41.057 86.3577 17.596 109.819C-5.86501 133.28 -5.86566 171.318 17.596 194.78C18.4886 195.672 19.4084 196.519 20.3418 197.344L20.251 197.435L105.212 282.396L190.173 197.435C213.634 173.974 213.634 135.935 190.173 112.474C166.711 89.012 128.673 89.0127 105.212 112.474Z" fill="#002873"/>
<path d="M173.598 105.139C166.608 101.019 163.178 93.9588 165.948 89.3688C168.718 84.7888 176.628 84.4188 183.628 88.5388C186.448 90.1488 188.818 92.4288 190.538 95.1888L219.938 113.049L210.818 127.089L182.798 107.989C179.518 107.799 176.358 106.819 173.588 105.129H173.598L173.598 105.139Z" fill="#F6A6A9"/>
<path d="M193.578 121.329L201.938 101.359L242.788 114.879L224.518 145.289L193.578 121.329Z" fill="#DDDEDF"/>
</g>
<defs>
<clipPath id="clip0_2146_276">
<rect width="304.399" height="525.418" fill="white"/>
</clipPath>
</defs>
</svg>
