<svg width="1023" height="786" viewBox="0 0 1023 786" fill="none" xmlns="http://www.w3.org/2000/svg">
<g clip-path="url(#clip0_2147_294)">
<path opacity="0.1" d="M468.631 693.879C703.352 693.879 893.631 679.104 893.631 660.879C893.631 642.654 703.352 627.879 468.631 627.879C233.91 627.879 43.6309 642.654 43.6309 660.879C43.6309 679.104 233.91 693.879 468.631 693.879Z" fill="#002873"/>
<g opacity="0.1">
<path d="M845.05 472.842C842.51 465.132 832.21 461.582 822.05 464.922C820.586 465.399 819.17 466.012 817.82 466.752C817.17 466.572 816.5 466.412 815.82 466.292C816.375 464.074 816.587 461.784 816.45 459.502C819.954 457.158 822.797 453.952 824.706 450.192C826.615 446.432 827.525 442.245 827.35 438.032C830.845 435.681 833.678 432.472 835.58 428.713C837.481 424.955 838.387 420.771 838.21 416.562C841.732 414.241 844.572 411.024 846.44 407.242C851.34 397.542 849.31 386.642 841.9 382.892C834.49 379.142 824.5 383.972 819.6 393.672C817.657 397.416 816.749 401.61 816.97 405.822C813.475 408.173 810.641 411.382 808.74 415.141C806.838 418.9 805.933 423.083 806.11 427.292C802.615 429.643 799.781 432.852 797.88 436.611C795.978 440.37 795.073 444.553 795.25 448.762C791.746 451.11 788.905 454.318 786.996 458.079C785.088 461.84 784.176 466.028 784.35 470.242C780.828 472.563 777.987 475.78 776.12 479.562C775.199 481.385 774.5 483.312 774.04 485.302C772.811 483.507 771.314 481.911 769.6 480.572C769.404 479.045 769.069 477.539 768.6 476.072C765.26 465.902 756.3 459.702 748.6 462.242C740.9 464.782 737.34 475.072 740.68 485.242C742.047 489.603 744.678 493.459 748.24 496.322C748.436 497.849 748.771 499.355 749.24 500.822C751.18 506.722 755.01 511.282 759.39 513.572C759.002 514.846 758.724 516.151 758.56 517.472C754.43 521.444 751.771 526.701 751.02 532.382C746.886 536.356 744.228 541.617 743.48 547.302C741.433 549.267 739.742 551.571 738.48 554.112C733.57 563.812 735.6 574.722 743.01 578.462C750.42 582.202 760.41 577.392 765.32 567.682C766.614 565.15 767.46 562.413 767.82 559.592C771.95 555.62 774.608 550.363 775.36 544.682C779.493 540.708 782.152 535.447 782.9 529.762C787.002 525.78 789.629 520.523 790.35 514.852C794.498 510.879 797.165 505.608 797.91 499.912C799.182 498.706 800.318 497.365 801.3 495.912C805.385 496.751 809.621 496.485 813.57 495.142C815.033 494.665 816.45 494.052 817.8 493.312C822.223 494.479 826.891 494.311 831.22 492.832C841.35 489.522 847.58 480.562 845.05 472.842Z" fill="#3F3D56"/>
<g opacity="0.1">
<path d="M827.12 442.441C826.071 443.473 824.918 444.395 823.68 445.191C823.837 448.046 823.461 450.905 822.57 453.621C823.357 452.534 824.059 451.387 824.67 450.191C825.91 447.762 826.738 445.143 827.12 442.441Z" fill="black"/>
<path d="M837.982 420.969C836.932 422.001 835.779 422.922 834.542 423.719C834.699 426.573 834.322 429.432 833.432 432.149C834.221 431.059 834.923 429.909 835.532 428.709C836.767 426.28 837.595 423.666 837.982 420.969Z" fill="black"/>
<path d="M813.351 412.98C813.259 411.508 813.316 410.031 813.521 408.57C811.579 410.484 809.964 412.704 808.741 415.14C808.137 416.342 807.629 417.589 807.221 418.87C808.876 416.539 810.955 414.541 813.351 412.98Z" fill="black"/>
<path d="M744.422 542.911C745.296 541.693 746.283 540.562 747.372 539.531C747.542 538.175 747.833 536.836 748.242 535.531C747.372 536.699 746.606 537.941 745.952 539.241C745.347 540.423 744.836 541.65 744.422 542.911Z" fill="black"/>
<path d="M751.961 528.01C752.835 526.793 753.822 525.661 754.911 524.63C755.074 523.309 755.352 522.004 755.741 520.73C754.911 521.865 754.175 523.066 753.541 524.32C752.923 525.509 752.394 526.743 751.961 528.01Z" fill="black"/>
<path d="M816.251 463.912C815.208 464.944 814.058 465.862 812.821 466.652C812.958 468.934 812.746 471.224 812.191 473.442C812.866 473.559 813.534 473.712 814.191 473.902C815.541 473.162 816.958 472.549 818.421 472.072C828.601 468.732 838.891 472.282 841.421 479.992C842.049 481.93 842.16 483.998 841.741 485.992C845.091 482.052 846.481 477.252 845.041 472.852C842.501 465.142 832.201 461.592 822.041 464.932C820.578 465.409 819.161 466.022 817.811 466.762C817.161 466.582 816.491 466.422 815.811 466.302C816.001 465.502 816.141 464.712 816.251 463.912Z" fill="black"/>
<path d="M740.701 550.398C739.832 551.566 739.065 552.808 738.411 554.108C737.803 555.314 737.289 556.564 736.871 557.848C737.764 556.625 738.768 555.487 739.871 554.448C740.025 553.076 740.303 551.721 740.701 550.398Z" fill="black"/>
<path d="M802.441 434.449C802.349 432.977 802.406 431.5 802.611 430.039C800.669 431.953 799.054 434.172 797.831 436.609C797.227 437.811 796.719 439.058 796.311 440.339C797.966 438.008 800.045 436.01 802.441 434.449Z" fill="black"/>
<path d="M786.752 522.009C786.555 523.497 786.22 524.963 785.752 526.389C786.534 525.297 787.233 524.147 787.842 522.949C788.497 521.664 789.043 520.326 789.472 518.949C788.653 520.044 787.743 521.068 786.752 522.009Z" fill="black"/>
<path d="M771.672 551.83C771.475 553.317 771.141 554.784 770.672 556.21C771.461 555.12 772.163 553.97 772.772 552.77C773.423 551.483 773.968 550.145 774.402 548.77C773.582 549.867 772.669 550.891 771.672 551.83Z" fill="black"/>
<path d="M779.211 536.91C779.015 538.398 778.68 539.864 778.211 541.29C779.008 540.219 779.723 539.089 780.351 537.91C781.006 536.625 781.552 535.287 781.981 533.91C781.144 534.986 780.217 535.99 779.211 536.91Z" fill="black"/>
<path d="M794.291 507.099C794.095 508.583 793.76 510.046 793.291 511.469C794.075 510.381 794.774 509.234 795.381 508.039C796.044 506.732 796.592 505.37 797.021 503.969C796.206 505.092 795.293 506.139 794.291 507.099Z" fill="black"/>
<path d="M744.921 469.392C752.641 466.862 761.601 473.052 764.921 483.222C765.39 484.692 765.724 486.202 765.921 487.732C767.636 489.071 769.133 490.667 770.361 492.462C770.822 490.469 771.52 488.538 772.441 486.712C772.791 486.032 773.171 485.382 773.561 484.712C772.427 483.141 771.081 481.735 769.561 480.532C769.365 479.005 769.031 477.499 768.561 476.032C765.221 465.862 756.261 459.662 748.561 462.202C744.161 463.642 741.121 467.612 739.941 472.632C741.295 471.141 743.01 470.025 744.921 469.392Z" fill="black"/>
<path d="M780.722 477.392C780.633 475.923 780.694 474.449 780.902 472.992C778.954 474.903 777.335 477.123 776.112 479.562C775.506 480.76 774.998 482.003 774.592 483.282C776.251 480.955 778.33 478.958 780.722 477.392Z" fill="black"/>
<path d="M791.581 455.912C791.493 454.443 791.553 452.969 791.761 451.512C789.811 453.417 788.192 455.634 786.971 458.072C786.367 459.273 785.859 460.52 785.451 461.802C787.106 459.471 789.186 457.472 791.581 455.912Z" fill="black"/>
<path d="M764.131 566.741C763.934 568.232 763.6 569.701 763.131 571.131C764.775 568.854 766.035 566.324 766.861 563.641C766.043 564.752 765.13 565.789 764.131 566.741Z" fill="black"/>
</g>
<path d="M859.871 373.623C863.396 371.305 866.237 368.087 868.101 364.303C873.011 354.603 870.981 343.693 863.571 339.943C856.161 336.193 846.171 341.023 841.261 350.733C839.316 354.486 838.411 358.692 838.641 362.913C835.146 365.264 832.312 368.473 830.411 372.231C828.51 375.99 827.604 380.174 827.781 384.383C824.254 386.698 821.412 389.917 819.551 393.703C818.949 394.89 818.444 396.124 818.041 397.393C820.652 393.612 824.438 390.8 828.811 389.393C829.309 390.933 830.107 392.359 831.16 393.589C832.213 394.819 833.499 395.827 834.945 396.556C836.39 397.286 837.965 397.721 839.58 397.837C841.195 397.953 842.816 397.748 844.351 397.233C845.828 401.581 845.828 406.295 844.351 410.643C845.132 409.565 845.828 408.429 846.431 407.243C848.371 403.498 849.275 399.304 849.051 395.093C852.55 392.746 855.387 389.538 857.289 385.778C859.191 382.018 860.094 377.832 859.911 373.623H859.871Z" fill="#3F3D56"/>
<path d="M979.231 235.98C982.246 234.574 985.159 232.96 987.951 231.15L955.621 207.53L993.621 227.1C1001.31 220.993 1007.67 213.381 1012.31 204.73C1016.95 196.08 1019.78 186.572 1020.62 176.79L956.041 177.45L1020.76 166.63C1020.09 156.839 1017.43 147.287 1012.93 138.563C1008.44 129.838 1002.21 122.125 994.622 115.896C987.037 109.668 978.259 105.056 968.826 102.343C959.394 99.6309 949.507 98.8755 939.772 100.124C930.038 101.372 920.661 104.597 912.218 109.601C903.775 114.605 896.444 121.282 890.676 129.223C884.908 137.163 880.824 146.199 878.675 155.776C876.526 165.352 876.358 175.266 878.181 184.91C873.486 187.093 869.041 189.775 864.921 192.91L898.671 239.84L858.151 198.76C849.599 207.157 843.277 217.554 839.755 229.01C836.233 240.466 835.623 252.619 837.981 264.37C825.74 270.084 815.354 279.125 808.009 290.462C800.663 301.799 796.655 314.973 796.443 328.48C796.23 341.986 799.821 355.28 806.806 366.843C813.791 378.405 823.887 387.769 835.942 393.865C847.997 399.961 861.523 402.543 874.976 401.315C888.428 400.088 901.264 395.101 912.016 386.924C922.769 378.747 931.004 367.711 935.781 355.075C940.558 342.44 941.684 328.715 939.031 315.47C953.679 308.652 965.608 297.106 972.899 282.688C980.19 268.27 982.421 251.819 979.231 235.98Z" fill="#002873"/>
<path opacity="0.1" d="M844.35 217.662C837.035 232.073 834.798 248.531 838 264.372C825.76 270.086 815.373 279.127 808.028 290.464C800.683 301.801 796.675 314.975 796.462 328.482C796.249 341.988 799.841 355.282 806.826 366.845C813.81 378.407 823.907 387.771 835.962 393.867C848.016 399.963 861.543 402.545 874.995 401.317C888.448 400.09 901.283 395.103 912.036 386.926C922.788 378.75 931.024 367.713 935.801 355.077C940.578 342.442 941.704 328.718 939.05 315.472C953.18 308.912 847.97 210.452 844.35 217.662Z" fill="black"/>
<path d="M925.491 113.411C931.395 113.411 936.181 108.625 936.181 102.721C936.181 96.8173 931.395 92.0312 925.491 92.0312C919.587 92.0312 914.801 96.8173 914.801 102.721C914.801 108.625 919.587 113.411 925.491 113.411Z" fill="#002873"/>
<path d="M987.93 120.271C993.834 120.271 998.62 115.485 998.62 109.581C998.62 103.677 993.834 98.8906 987.93 98.8906C982.026 98.8906 977.24 103.677 977.24 109.581C977.24 115.485 982.026 120.271 987.93 120.271Z" fill="#002873"/>
<path d="M1012.01 216.333C1017.91 216.333 1022.7 211.547 1022.7 205.643C1022.7 199.739 1017.91 194.953 1012.01 194.953C1006.11 194.953 1001.32 199.739 1001.32 205.643C1001.32 211.547 1006.11 216.333 1012.01 216.333Z" fill="#002873"/>
<path d="M979.51 264.302C985.414 264.302 990.2 259.516 990.2 253.612C990.2 247.708 985.414 242.922 979.51 242.922C973.606 242.922 968.82 247.708 968.82 253.612C968.82 259.516 973.606 264.302 979.51 264.302Z" fill="#002873"/>
<path d="M935.11 363.931C941.014 363.931 945.8 359.145 945.8 353.241C945.8 347.337 941.014 342.551 935.11 342.551C929.206 342.551 924.42 347.337 924.42 353.241C924.42 359.145 929.206 363.931 935.11 363.931Z" fill="#002873"/>
<path opacity="0.1" d="M935.11 363.931C941.014 363.931 945.8 359.145 945.8 353.241C945.8 347.337 941.014 342.551 935.11 342.551C929.206 342.551 924.42 347.337 924.42 353.241C924.42 359.145 929.206 363.931 935.11 363.931Z" fill="black"/>
<path d="M836.389 251.091C842.293 251.091 847.079 246.305 847.079 240.401C847.079 234.497 842.293 229.711 836.389 229.711C830.485 229.711 825.699 234.497 825.699 240.401C825.699 246.305 830.485 251.091 836.389 251.091Z" fill="#002873"/>
<path opacity="0.1" d="M836.389 251.091C842.293 251.091 847.079 246.305 847.079 240.401C847.079 234.497 842.293 229.711 836.389 229.711C830.485 229.711 825.699 234.497 825.699 240.401C825.699 246.305 830.485 251.091 836.389 251.091Z" fill="black"/>
<path opacity="0.1" d="M824.989 416.23C817.879 412.64 815.729 402.47 819.879 393.09C819.659 393.47 819.449 393.86 819.249 394.27C814.339 403.97 816.369 414.87 823.779 418.62C831.189 422.37 841.179 417.54 846.079 407.84C846.289 407.44 846.469 407.03 846.649 406.63C841.559 415.54 832.089 419.83 824.989 416.23Z" fill="black"/>
<path opacity="0.1" d="M814.431 437.111C807.331 433.521 805.171 423.351 809.331 413.961C809.111 414.351 808.891 414.741 808.691 415.141C803.781 424.841 805.811 435.751 813.221 439.491C820.631 443.231 830.621 438.421 835.531 428.711C835.731 428.311 835.921 427.911 836.101 427.501C831.001 436.411 821.541 440.701 814.431 437.111Z" fill="black"/>
<path opacity="0.1" d="M803.871 457.98C796.771 454.39 794.611 444.22 798.771 434.84C798.551 435.22 798.331 435.61 798.131 436.02C793.221 445.72 795.261 456.62 802.671 460.37C810.081 464.12 820.061 459.29 824.971 449.59C825.171 449.19 825.361 448.78 825.541 448.38C820.451 457.29 810.981 461.58 803.871 457.98Z" fill="black"/>
<path opacity="0.1" d="M793.351 478.91C786.241 475.32 784.091 465.15 788.241 455.77C788.021 456.15 787.811 456.54 787.601 456.94C782.701 466.64 784.731 477.55 792.141 481.3C799.551 485.05 809.541 480.22 814.441 470.51C814.651 470.11 814.831 469.71 815.011 469.3C809.891 478.16 800.421 482.45 793.351 478.91Z" fill="black"/>
<path opacity="0.1" d="M782.761 499.73C775.651 496.14 773.501 485.97 777.651 476.59C777.431 476.97 777.221 477.36 777.021 477.77C772.111 487.47 774.141 498.37 781.551 502.12C788.961 505.87 798.951 501.04 803.861 491.34C804.061 490.94 804.251 490.53 804.431 490.13C799.351 499.04 789.861 503.33 782.761 499.73Z" fill="black"/>
<path opacity="0.1" d="M772.2 520.613C765.1 517.023 762.94 506.853 767.1 497.473C766.88 497.853 766.66 498.243 766.46 498.643C761.55 508.343 763.58 519.253 771 523.003C778.42 526.753 788.35 521.913 793.35 512.213C793.55 511.813 793.74 511.413 793.92 511.003C788.77 519.913 779.35 524.203 772.2 520.613Z" fill="black"/>
<path opacity="0.1" d="M761.64 541.48C754.54 537.89 752.38 527.72 756.54 518.34C756.32 518.73 756.11 519.11 755.9 519.52C751 529.22 753.03 540.12 760.44 543.87C767.85 547.62 777.84 542.79 782.74 533.09C782.95 532.69 783.13 532.28 783.31 531.88C778.22 540.79 768.75 545.08 761.64 541.48Z" fill="black"/>
<path opacity="0.1" d="M751.091 562.363C743.981 558.773 741.831 548.603 745.981 539.223C745.761 539.603 745.551 539.993 745.351 540.393C740.441 550.093 742.471 561.003 749.881 564.753C757.291 568.503 767.281 563.673 772.191 553.963C772.391 553.563 772.571 553.163 772.751 552.753C767.661 561.663 758.191 565.913 751.091 562.363Z" fill="black"/>
<path opacity="0.1" d="M744.149 576.08C737.049 572.48 734.889 562.32 739.049 552.93C738.829 553.32 738.609 553.71 738.409 554.11C733.499 563.81 735.529 574.72 742.939 578.46C750.349 582.2 760.339 577.39 765.249 567.68C765.449 567.28 765.639 566.88 765.819 566.47C760.719 575.38 751.249 579.67 744.149 576.08Z" fill="black"/>
<path d="M934.941 483.17C936.043 480.01 936.715 476.718 936.941 473.38C937.675 473.378 938.402 473.225 939.074 472.93C939.747 472.635 940.351 472.204 940.85 471.665C941.349 471.125 941.731 470.489 941.972 469.795C942.214 469.102 942.31 468.366 942.254 467.633C942.198 466.901 941.992 466.188 941.648 465.539C941.304 464.89 940.83 464.319 940.255 463.862C939.68 463.404 939.018 463.07 938.308 462.881C937.598 462.691 936.857 462.65 936.131 462.76C934.942 457.347 932.563 452.267 929.166 447.889C925.769 443.511 921.439 439.945 916.491 437.45C917.13 436.184 917.241 434.717 916.798 433.371C916.355 432.024 915.396 430.909 914.131 430.27C912.866 429.63 911.399 429.52 910.052 429.963C908.706 430.405 907.59 431.364 906.951 432.63C906.72 433.079 906.558 433.561 906.471 434.06C900.604 432.966 894.56 433.29 888.843 435.003C883.126 436.716 877.9 439.77 873.601 443.91C870.354 443.384 867.053 443.287 863.781 443.62L859.451 463.33L859.191 444.33C854.221 445.419 849.526 447.51 845.392 450.476C841.258 453.442 837.772 457.219 835.147 461.578C832.522 465.936 830.814 470.784 830.126 475.825C829.439 480.866 829.787 485.995 831.148 490.897C832.51 495.799 834.857 500.372 838.046 504.337C841.235 508.301 845.199 511.573 849.696 513.954C854.192 516.334 859.127 517.772 864.199 518.181C869.27 518.589 874.371 517.959 879.191 516.33C879.706 517.26 880.491 518.013 881.441 518.49C882.42 518.987 883.529 519.17 884.616 519.015C885.704 518.859 886.716 518.372 887.517 517.62C888.317 516.868 888.866 515.887 889.089 514.811C889.311 513.736 889.197 512.618 888.761 511.61C890.467 510.438 892.072 509.127 893.561 507.69C901.368 508.959 909.376 507.724 916.438 504.161C923.5 500.599 929.252 494.893 932.871 487.86L912.721 484.47L934.941 483.17Z" fill="#002873"/>
<g opacity="0.1">
<path d="M903.81 492.74C896.37 482.92 891.81 471.29 886.56 460.13C884.452 455.549 882.092 451.089 879.49 446.77L875.55 442.18C874.89 442.74 874.23 443.32 873.55 443.93C870.304 443.404 867.002 443.307 863.73 443.64L859.4 463.35L859.14 444.35C854.17 445.439 849.475 447.53 845.341 450.496C841.207 453.462 837.721 457.239 835.096 461.598C832.471 465.956 830.763 470.804 830.076 475.845C829.388 480.887 829.736 486.015 831.098 490.917C832.459 495.819 834.806 500.392 837.995 504.357C841.184 508.321 845.148 511.593 849.645 513.974C854.142 516.354 859.076 517.793 864.148 518.201C869.219 518.61 874.321 517.98 879.14 516.35C879.656 517.28 880.44 518.033 881.39 518.51C882.369 519.007 883.478 519.19 884.566 519.035C885.653 518.879 886.666 518.392 887.466 517.64C888.266 516.888 888.815 515.907 889.038 514.831C889.26 513.756 889.146 512.638 888.71 511.63C890.416 510.458 892.022 509.147 893.51 507.71C901.154 508.947 908.993 507.787 915.95 504.39C911.306 501.181 907.207 497.248 903.81 492.74Z" fill="black"/>
</g>
<path d="M772.06 450.541C772.472 449.726 772.669 448.819 772.63 447.906C772.592 446.993 772.32 446.106 771.84 445.328C771.36 444.551 770.689 443.909 769.891 443.465C769.093 443.021 768.194 442.789 767.28 442.791C765.764 434.755 761.654 427.438 755.58 421.961C756.559 418.143 756.93 414.195 756.68 410.261L737.03 406.911L756.11 405.711C755.767 403.92 755.296 402.155 754.7 400.431C755.443 399.92 756.048 399.233 756.46 398.431C756.941 397.476 757.125 396.397 756.987 395.336C756.849 394.275 756.396 393.279 755.687 392.478C754.977 391.677 754.043 391.107 753.007 390.842C751.97 390.577 750.877 390.629 749.87 390.991C744.817 383.851 737.422 378.706 728.97 376.452C720.518 374.197 711.543 374.975 703.605 378.65C695.666 382.325 689.266 388.665 685.517 396.568C681.767 404.471 680.905 413.439 683.08 421.911C681.923 422.4 680.979 423.287 680.42 424.411C679.93 425.38 679.746 426.475 679.893 427.55C680.041 428.626 680.513 429.631 681.246 430.431C681.979 431.232 682.939 431.79 683.997 432.031C685.056 432.272 686.162 432.185 687.17 431.781C689.088 435.003 691.478 437.918 694.26 440.431C692.235 448.329 692.846 456.673 696 464.192L722.35 457.351L698.85 469.711C703.005 476.314 709.12 481.453 716.339 484.409C723.559 487.366 731.522 487.992 739.114 486.201C746.707 484.409 753.55 480.289 758.686 474.417C763.822 468.545 766.995 461.215 767.76 453.451C768.665 453.373 769.536 453.065 770.288 452.555C771.041 452.046 771.651 451.353 772.06 450.541Z" fill="#002873"/>
<path opacity="0.1" d="M772.06 450.542C772.473 449.727 772.669 448.819 772.63 447.907C772.592 446.994 772.32 446.106 771.84 445.329C771.36 444.551 770.689 443.91 769.891 443.466C769.093 443.021 768.194 442.789 767.28 442.792C765.765 434.756 761.654 427.438 755.58 421.962C755.74 421.332 755.88 420.712 756 420.082C755.303 420.588 754.656 421.16 754.07 421.792C750.52 425.682 748.7 430.912 745.19 434.842C741.05 439.482 734.85 441.902 728.66 442.552C722.47 443.202 716.24 442.252 710.13 441.062C705.07 440.062 699.94 438.902 694.81 439.392C694.31 439.392 693.81 439.502 693.35 439.582C693.65 439.872 693.95 440.162 694.26 440.442C692.235 448.34 692.846 456.683 696 464.202L722.35 457.352L698.85 469.712C703.005 476.315 709.12 481.453 716.34 484.41C723.559 487.366 731.522 487.993 739.114 486.201C746.707 484.41 753.55 480.29 758.686 474.418C763.822 468.546 766.995 461.216 767.76 453.452C768.666 453.374 769.536 453.065 770.289 452.556C771.041 452.047 771.651 451.353 772.06 450.542Z" fill="black"/>
</g>
<g opacity="0.1">
<path d="M89.4904 511.24C90.7704 507.35 95.9604 505.56 101.08 507.24C101.817 507.481 102.53 507.789 103.21 508.16C103.54 508.07 103.88 507.99 104.21 507.93C103.929 506.813 103.822 505.659 103.89 504.51C102.133 503.321 100.708 501.703 99.7506 499.81C98.7934 497.916 98.3355 495.81 98.4204 493.69C96.6475 492.523 95.2182 490.904 94.2804 489C93.3031 487.113 92.8442 485.001 92.9504 482.88C91.1787 481.707 89.75 480.085 88.8104 478.18C86.3504 473.3 87.3504 467.81 91.1004 465.91C94.8504 464.01 99.8704 466.46 102.34 471.34C103.316 473.23 103.771 475.345 103.66 477.47C105.423 478.651 106.851 480.266 107.809 482.159C108.767 484.052 109.222 486.16 109.13 488.28C110.892 489.464 112.32 491.081 113.278 492.976C114.236 494.87 114.691 496.979 114.6 499.1C116.363 500.281 117.791 501.896 118.749 503.789C119.707 505.682 120.162 507.79 120.07 509.91C121.846 511.081 123.278 512.703 124.22 514.61C124.67 515.532 125.006 516.506 125.22 517.51C125.836 516.603 126.589 515.797 127.45 515.12C127.553 514.349 127.727 513.589 127.97 512.85C129.66 507.73 134.17 504.61 138.06 505.85C141.95 507.09 143.73 512.32 142.06 517.44C141.37 519.638 140.044 521.583 138.25 523.03C138.146 523.797 137.972 524.554 137.73 525.29C136.91 528.004 135.081 530.301 132.62 531.71C132.813 532.364 132.954 533.033 133.04 533.71C134.073 534.701 134.928 535.861 135.57 537.14C136.225 538.416 136.651 539.797 136.83 541.22C137.867 542.21 138.726 543.37 139.37 544.65C140.023 545.926 140.45 547.307 140.63 548.73C141.669 549.721 142.528 550.885 143.17 552.17C145.64 557.05 144.62 562.55 140.89 564.43C137.16 566.31 132.12 563.89 129.65 559C128.999 557.722 128.573 556.342 128.39 554.92C126.307 552.921 124.967 550.272 124.59 547.41C122.507 545.411 121.167 542.762 120.79 539.9C119.755 538.909 118.896 537.749 118.25 536.47C117.604 535.19 117.178 533.811 116.99 532.39C115.958 531.399 115.102 530.239 114.46 528.96C113.806 527.683 113.38 526.303 113.2 524.88C112.557 524.28 111.983 523.609 111.49 522.88C109.433 523.3 107.301 523.169 105.31 522.5C104.571 522.253 103.855 521.942 103.17 521.57C100.946 522.16 98.5969 522.077 96.4204 521.33C91.3504 519.64 88.2204 515.13 89.4904 511.24Z" fill="#3F3D56"/>
<g opacity="0.1">
<path d="M98.5195 495.91C99.0497 496.433 99.6329 496.899 100.26 497.3C100.175 498.736 100.365 500.175 100.82 501.54C100.418 500.995 100.063 500.416 99.7595 499.81C99.1341 498.587 98.7151 497.27 98.5195 495.91Z" fill="black"/>
<path d="M93.0488 485.109C93.5817 485.626 94.1646 486.088 94.7888 486.489C94.7048 487.929 94.8949 489.371 95.3488 490.739C94.1375 489.077 93.3482 487.145 93.0488 485.109Z" fill="black"/>
<path d="M105.478 481.079C105.526 480.339 105.499 479.595 105.398 478.859C106.376 479.825 107.19 480.943 107.808 482.169C108.11 482.775 108.364 483.404 108.568 484.049C107.735 482.873 106.687 481.865 105.478 481.079Z" fill="black"/>
<path d="M140.18 546.54C139.743 545.927 139.247 545.357 138.7 544.84C138.608 544.162 138.461 543.493 138.26 542.84C138.694 543.427 139.078 544.049 139.41 544.7C139.713 545.293 139.971 545.908 140.18 546.54Z" fill="black"/>
<path d="M136.349 539.028C135.912 538.415 135.416 537.846 134.869 537.328C134.788 536.651 134.647 535.981 134.449 535.328C135.273 536.444 135.908 537.687 136.329 539.008L136.349 539.028Z" fill="black"/>
<path d="M103.999 506.75C104.524 507.269 105.104 507.728 105.729 508.12C105.655 509.27 105.763 510.424 106.049 511.54C105.712 511.6 105.379 511.677 105.049 511.77C104.364 511.401 103.648 511.094 102.909 510.85C97.7894 509.17 92.5994 510.96 91.3294 514.85C91.0111 515.818 90.9525 516.853 91.1594 517.85C90.3367 516.985 89.7515 515.922 89.4607 514.764C89.1698 513.605 89.1831 512.392 89.4994 511.24C90.7794 507.35 95.9694 505.56 101.089 507.24C101.826 507.482 102.539 507.79 103.219 508.16C103.549 508.07 103.889 507.99 104.219 507.93C104.123 507.542 104.05 507.148 103.999 506.75Z" fill="black"/>
<path d="M142.059 550.309C142.495 550.898 142.88 551.523 143.209 552.179C143.514 552.784 143.771 553.413 143.979 554.059C143.541 553.442 143.046 552.87 142.499 552.349C142.409 551.657 142.262 550.975 142.059 550.309Z" fill="black"/>
<path d="M110.949 491.907C110.997 491.167 110.97 490.423 110.869 489.688C111.849 490.651 112.663 491.769 113.279 492.997C113.581 493.6 113.835 494.225 114.039 494.867C113.206 493.694 112.157 492.69 110.949 491.907Z" fill="black"/>
<path d="M118.859 536.007C118.952 536.755 119.116 537.491 119.349 538.207C118.515 537.065 117.88 535.791 117.469 534.438C117.884 535.001 118.349 535.527 118.859 536.007Z" fill="black"/>
<path d="M126.45 551.03C126.551 551.777 126.719 552.513 126.95 553.23C126.548 552.684 126.194 552.106 125.89 551.5C125.561 550.857 125.287 550.188 125.07 549.5C125.489 550.046 125.951 550.557 126.45 551.03Z" fill="black"/>
<path d="M122.66 543.518C122.753 544.265 122.917 545.002 123.15 545.718C122.751 545.17 122.397 544.592 122.09 543.988C121.759 543.346 121.485 542.677 121.27 541.988C121.687 542.538 122.152 543.05 122.66 543.518Z" fill="black"/>
<path d="M115.059 528.489C115.151 529.239 115.315 529.979 115.549 530.699C115.17 530.15 114.835 529.571 114.549 528.969C114.213 528.328 113.936 527.659 113.719 526.969C114.118 527.515 114.567 528.024 115.059 528.489Z" fill="black"/>
<path d="M139.929 509.501C136.039 508.221 131.529 511.341 129.849 516.501C129.605 517.24 129.431 518 129.329 518.771C128.464 519.444 127.708 520.247 127.089 521.151C126.856 520.146 126.504 519.172 126.039 518.251C125.869 517.911 125.679 517.581 125.479 517.251C126.046 516.463 126.719 515.756 127.479 515.151C127.581 514.38 127.755 513.62 127.999 512.881C129.689 507.761 134.199 504.641 138.089 505.881C139.204 506.309 140.19 507.019 140.95 507.94C141.711 508.862 142.22 509.965 142.429 511.141C141.749 510.39 140.888 509.825 139.929 509.501Z" fill="black"/>
<path d="M121.889 513.529C121.936 512.788 121.909 512.044 121.809 511.309C122.789 512.272 123.603 513.39 124.219 514.619C124.52 515.225 124.775 515.853 124.979 516.499C124.148 515.32 123.099 514.312 121.889 513.529Z" fill="black"/>
<path d="M116.42 502.708C116.467 501.967 116.44 501.224 116.34 500.488C117.315 501.455 118.129 502.573 118.75 503.798C119.052 504.404 119.306 505.033 119.51 505.678C118.677 504.502 117.628 503.494 116.42 502.708Z" fill="black"/>
<path d="M130.249 558.538C130.345 559.289 130.513 560.029 130.749 560.748C130.349 560.197 129.995 559.615 129.689 559.008C129.36 558.365 129.086 557.696 128.869 557.008C129.288 557.554 129.749 558.065 130.249 558.538Z" fill="black"/>
</g>
<path d="M82.0191 461.25C80.2462 460.083 78.817 458.464 77.8791 456.56C75.4091 451.67 76.4291 446.18 80.1591 444.29C83.8891 442.4 88.9291 444.83 91.3991 449.72C92.3761 451.606 92.8318 453.718 92.7191 455.84C94.4808 457.024 95.9089 458.641 96.8667 460.535C97.8245 462.43 98.2798 464.539 98.1891 466.66C99.9632 467.828 101.395 469.446 102.339 471.35C102.639 471.949 102.893 472.571 103.099 473.21C101.774 471.319 99.8674 469.914 97.6691 469.21C97.4243 469.991 97.0262 470.715 96.4981 471.341C95.97 471.966 95.3225 472.48 94.5935 472.853C93.8645 473.225 93.0686 473.448 92.2522 473.51C91.4359 473.571 90.6156 473.469 89.8391 473.21C89.0977 475.398 89.0977 477.771 89.8391 479.96C89.4634 479.415 89.1291 478.844 88.8391 478.25C87.8619 476.363 87.4029 474.251 87.5091 472.13C85.7495 470.943 84.323 469.326 83.3655 467.432C82.408 465.538 81.9513 463.43 82.0391 461.31L82.0191 461.25Z" fill="#3F3D56"/>
<path d="M21.9002 391.912C20.3833 391.202 18.9166 390.39 17.5102 389.482L33.7902 377.582L14.6502 387.432C10.7804 384.354 7.57909 380.52 5.24235 376.163C2.90561 371.806 1.48253 367.018 1.06023 362.092L33.6002 362.432L0.990234 356.972C1.27102 351.997 2.57325 347.133 4.8158 342.684C7.05834 338.234 10.1932 334.294 14.0249 331.109C17.8567 327.924 22.3033 325.562 27.0877 324.17C31.8722 322.779 36.8919 322.388 41.8342 323.021C46.7765 323.654 51.5354 325.298 55.8146 327.851C60.0937 330.404 63.8013 333.81 66.7063 337.858C69.6114 341.906 71.6517 346.51 72.7001 351.381C73.7486 356.252 73.7826 361.287 72.8002 366.172C75.1623 367.264 77.4016 368.605 79.4802 370.172L62.4802 393.812L82.8902 373.132C87.1971 377.362 90.3815 382.599 92.1554 388.37C93.9294 394.141 94.2369 400.262 93.0502 406.182C99.2244 409.057 104.465 413.613 108.172 419.326C111.879 425.04 113.903 431.682 114.013 438.492C114.123 445.302 112.314 452.006 108.793 457.836C105.273 463.667 100.182 468.389 94.1044 471.463C88.0264 474.536 81.206 475.837 74.4233 475.217C67.6406 474.597 61.1693 472.081 55.7494 467.956C50.3295 463.831 46.1799 458.264 43.775 451.892C41.3701 445.519 40.8071 438.599 42.1502 431.922C34.7812 428.487 28.7792 422.677 25.1071 415.424C21.435 408.17 20.3057 399.894 21.9002 391.922V391.912Z" fill="#002873"/>
<path opacity="0.1" d="M89.8502 382.69C93.5383 389.948 94.6659 398.24 93.0501 406.22C99.2243 409.096 104.464 413.651 108.172 419.365C111.879 425.079 113.903 431.72 114.013 438.53C114.123 445.341 112.314 452.044 108.793 457.875C105.273 463.705 100.182 468.427 94.1043 471.501C88.0263 474.575 81.2059 475.876 74.4232 475.256C67.6405 474.635 61.1692 472.119 55.7493 467.994C50.3295 463.869 46.1798 458.302 43.7749 451.93C41.3701 445.558 40.807 438.637 42.1502 431.96C35.0202 428.65 88.0202 379.06 89.8502 382.69Z" fill="black"/>
<path d="M48.9701 330.171C51.9469 330.171 54.3601 327.757 54.3601 324.781C54.3601 321.804 51.9469 319.391 48.9701 319.391C45.9933 319.391 43.5801 321.804 43.5801 324.781C43.5801 327.757 45.9933 330.171 48.9701 330.171Z" fill="#002873"/>
<path d="M17.5091 333.632C20.486 333.632 22.8991 331.218 22.8991 328.242C22.8991 325.265 20.486 322.852 17.5091 322.852C14.5323 322.852 12.1191 325.265 12.1191 328.242C12.1191 331.218 14.5323 333.632 17.5091 333.632Z" fill="#002873"/>
<path d="M5.39 382.022C8.36681 382.022 10.78 379.609 10.78 376.632C10.78 373.655 8.36681 371.242 5.39 371.242C2.41319 371.242 0 373.655 0 376.632C0 379.609 2.41319 382.022 5.39 382.022Z" fill="#002873"/>
<path d="M21.7591 406.19C24.736 406.19 27.1491 403.777 27.1491 400.8C27.1491 397.823 24.736 395.41 21.7591 395.41C18.7823 395.41 16.3691 397.823 16.3691 400.8C16.3691 403.777 18.7823 406.19 21.7591 406.19Z" fill="#002873"/>
<path d="M44.1205 456.382C47.0973 456.382 49.5105 453.968 49.5105 450.992C49.5105 448.015 47.0973 445.602 44.1205 445.602C41.1437 445.602 38.7305 448.015 38.7305 450.992C38.7305 453.968 41.1437 456.382 44.1205 456.382Z" fill="#002873"/>
<path opacity="0.1" d="M44.1205 456.382C47.0973 456.382 49.5105 453.968 49.5105 450.992C49.5105 448.015 47.0973 445.602 44.1205 445.602C41.1437 445.602 38.7305 448.015 38.7305 450.992C38.7305 453.968 41.1437 456.382 44.1205 456.382Z" fill="black"/>
<path d="M93.8509 399.53C96.8278 399.53 99.2409 397.117 99.2409 394.14C99.2409 391.163 96.8278 388.75 93.8509 388.75C90.8741 388.75 88.4609 391.163 88.4609 394.14C88.4609 397.117 90.8741 399.53 93.8509 399.53Z" fill="#002873"/>
<path opacity="0.1" d="M93.8509 399.53C96.8278 399.53 99.2409 397.117 99.2409 394.14C99.2409 391.163 96.8278 388.75 93.8509 388.75C90.8741 388.75 88.4609 391.163 88.4609 394.14C88.4609 397.117 90.8741 399.53 93.8509 399.53Z" fill="black"/>
<path opacity="0.1" d="M99.5997 482.722C103.18 480.912 104.26 475.793 102.17 471.062C102.28 471.263 102.39 471.452 102.49 471.652C104.96 476.542 103.94 482.032 100.2 483.922C96.4597 485.812 91.4397 483.382 88.9697 478.492C88.8697 478.292 88.7697 478.092 88.6797 477.882C91.2497 482.372 96.0197 484.532 99.5997 482.722Z" fill="black"/>
<path opacity="0.1" d="M104.91 493.242C108.49 491.432 109.58 486.302 107.49 481.582C107.6 481.772 107.71 481.972 107.81 482.172C110.28 487.062 109.26 492.552 105.52 494.442C101.78 496.332 96.76 493.902 94.29 489.012C94.18 488.812 94.09 488.602 94 488.402C96.57 492.912 101.35 495.052 104.91 493.242Z" fill="black"/>
<path opacity="0.1" d="M110.23 503.75C113.81 501.94 114.9 496.82 112.8 492.09C112.92 492.29 113.02 492.48 113.13 492.69C115.6 497.57 114.57 503.07 110.84 504.95C107.11 506.83 102.08 504.41 99.6103 499.52C99.5003 499.32 99.4103 499.12 99.3203 498.91C101.88 503.4 106.65 505.56 110.23 503.75Z" fill="black"/>
<path opacity="0.1" d="M115.551 514.269C119.131 512.459 120.221 507.339 118.121 502.609C118.231 502.799 118.341 502.999 118.441 503.199C120.921 508.089 119.891 513.579 116.161 515.469C112.431 517.359 107.391 514.929 104.921 510.039C104.821 509.839 104.731 509.629 104.641 509.429C107.201 513.909 111.971 516.079 115.551 514.269Z" fill="black"/>
<path opacity="0.1" d="M120.869 524.779C124.449 522.969 125.529 517.849 123.439 513.129C123.549 513.319 123.659 513.519 123.759 513.719C126.229 518.609 125.209 524.099 121.479 525.989C117.749 527.879 112.709 525.439 110.239 520.559C110.139 520.349 110.049 520.149 109.949 519.949C112.519 524.429 117.289 526.589 120.869 524.779Z" fill="black"/>
<path opacity="0.1" d="M126.19 535.301C129.77 533.491 130.85 528.371 128.76 523.641C128.87 523.841 128.98 524.031 129.08 524.231C131.55 529.121 130.53 534.611 126.8 536.501C123.07 538.391 118.03 535.961 115.56 531.071C115.46 530.871 115.36 530.671 115.27 530.461C117.84 534.911 122.61 537.111 126.19 535.301Z" fill="black"/>
<path opacity="0.1" d="M131.51 545.82C135.08 544.01 136.17 538.88 134.08 534.16C134.19 534.35 134.3 534.55 134.4 534.75C136.87 539.64 135.85 545.13 132.11 547.02C128.37 548.91 123.35 546.47 120.88 541.59C120.78 541.38 120.68 541.18 120.59 540.98C123.16 545.46 127.93 547.63 131.51 545.82Z" fill="black"/>
<path opacity="0.1" d="M136.82 556.332C140.4 554.522 141.49 549.402 139.39 544.672C139.51 544.872 139.61 545.062 139.72 545.272C142.19 550.152 141.16 555.652 137.43 557.532C133.7 559.412 128.67 556.992 126.2 552.102C126.09 551.902 126 551.702 125.91 551.492C128.48 555.982 133.24 558.142 136.82 556.332Z" fill="black"/>
<path opacity="0.1" d="M140.35 563.242C143.93 561.432 145.01 556.312 142.92 551.582C143.03 551.782 143.14 551.972 143.24 552.182C145.71 557.062 144.69 562.562 140.96 564.442C137.23 566.322 132.19 563.902 129.72 559.012C129.62 558.812 129.52 558.612 129.43 558.402C131.97 562.912 136.74 565.052 140.35 563.242Z" fill="black"/>
<path d="M44.2098 516.44C43.6544 514.849 43.318 513.191 43.2098 511.509C42.84 511.508 42.4745 511.431 42.136 511.282C41.7976 511.133 41.4934 510.916 41.2426 510.644C40.9918 510.372 40.7997 510.052 40.6784 509.703C40.557 509.353 40.5089 508.983 40.5372 508.614C40.5654 508.245 40.6694 507.886 40.8426 507.56C41.0158 507.233 41.2544 506.945 41.5437 506.715C41.833 506.485 42.1667 506.317 42.5239 506.221C42.8811 506.125 43.2542 506.104 43.6198 506.159C44.2198 503.434 45.4185 500.876 47.129 498.671C48.8396 496.466 51.0191 494.668 53.5098 493.409C53.1876 492.772 53.1319 492.032 53.3551 491.353C53.5783 490.674 54.062 490.112 54.6998 489.789C55.3377 489.467 56.0774 489.412 56.7563 489.635C57.4352 489.858 57.9976 490.342 58.3198 490.979C58.4369 491.206 58.5179 491.448 58.5598 491.699C61.5188 491.156 64.5647 491.327 67.4447 492.196C70.3247 493.066 72.9559 494.609 75.1198 496.699C76.7727 496.429 78.4544 496.382 80.1198 496.56L82.2998 506.479L82.3498 496.909C84.8293 497.483 87.167 498.552 89.2221 500.053C91.2771 501.554 93.007 503.455 94.3074 505.643C95.6078 507.83 96.4518 510.259 96.7886 512.781C97.1253 515.303 96.9477 517.868 96.2667 520.32C95.5856 522.772 94.4151 525.061 92.8257 527.048C91.2363 529.036 89.2609 530.681 87.0186 531.884C84.7763 533.088 82.3135 533.825 79.7788 534.051C77.244 534.277 74.6897 533.987 72.2698 533.199C72.0066 533.665 71.6141 534.043 71.1398 534.289C70.6455 534.539 70.0866 534.63 69.5385 534.552C68.9905 534.473 68.48 534.227 68.0762 533.849C67.6724 533.47 67.3947 532.976 67.2809 532.434C67.167 531.892 67.2225 531.329 67.4398 530.819C66.5824 530.221 65.7762 529.552 65.0298 528.819C61.0964 529.457 57.0622 528.832 53.5053 527.036C49.9485 525.24 47.0516 522.363 45.2298 518.819L55.3798 517.109L44.2098 516.44Z" fill="#002873"/>
<g opacity="0.1">
<path d="M59.8907 521.259C63.6407 516.259 65.9407 510.459 68.5807 504.839C69.6379 502.526 70.8265 500.276 72.1407 498.099L74.1407 495.789C74.4807 496.079 74.8107 496.369 75.1407 496.669C76.7936 496.398 78.4753 496.351 80.1407 496.529L82.3207 506.449L82.3507 496.909C84.8302 497.482 87.1679 498.552 89.223 500.052C91.278 501.553 93.0079 503.455 94.3083 505.642C95.6087 507.83 96.4527 510.258 96.7894 512.781C97.1262 515.303 96.9486 517.868 96.2676 520.32C95.5865 522.772 94.416 525.06 92.8266 527.048C91.2371 529.035 89.2618 530.68 87.0195 531.884C84.7772 533.087 82.3144 533.824 79.7797 534.05C77.2449 534.276 74.6906 533.987 72.2707 533.199C72.0075 533.664 71.6149 534.043 71.1407 534.289C70.6464 534.539 70.0874 534.63 69.5394 534.551C68.9914 534.472 68.4809 534.227 68.0771 533.848C67.6732 533.469 67.3956 532.976 67.2818 532.434C67.1679 531.892 67.2234 531.328 67.4407 530.819C66.5833 530.22 65.7771 529.551 65.0307 528.819C61.1787 529.437 57.2298 528.854 53.7207 527.149C56.0809 525.531 58.1644 523.542 59.8907 521.259Z" fill="black"/>
</g>
<path d="M126.259 500.002C126.099 499.687 126.003 499.343 125.976 498.991C125.95 498.639 125.993 498.285 126.103 497.949C126.214 497.614 126.39 497.304 126.621 497.036C126.852 496.769 127.133 496.55 127.449 496.392C127.827 496.199 128.245 496.099 128.669 496.102C129.432 492.052 131.501 488.364 134.559 485.602C134.065 483.68 133.879 481.692 134.009 479.712L143.899 478.052L134.289 477.442C134.463 476.539 134.704 475.65 135.009 474.782C134.632 474.531 134.325 474.186 134.119 473.782C133.879 473.3 133.788 472.758 133.858 472.224C133.928 471.69 134.156 471.189 134.513 470.786C134.87 470.383 135.34 470.096 135.861 469.961C136.382 469.827 136.932 469.852 137.439 470.032C139.205 467.519 141.565 465.482 144.309 464.102C147.541 462.462 151.177 461.789 154.782 462.163C158.386 462.538 161.806 463.944 164.632 466.213C167.458 468.483 169.569 471.519 170.712 474.958C171.856 478.397 171.983 482.092 171.079 485.602C171.549 485.803 171.952 486.135 172.241 486.557C172.529 486.979 172.691 487.475 172.708 487.986C172.725 488.497 172.596 489.002 172.335 489.443C172.075 489.883 171.695 490.24 171.239 490.472C170.897 490.645 170.523 490.744 170.14 490.761C169.757 490.778 169.375 490.714 169.019 490.572C168.054 492.19 166.851 493.653 165.449 494.912C166.474 498.9 166.169 503.113 164.579 506.912L151.349 503.432L163.179 509.662C161.403 512.496 158.905 514.807 155.942 516.358C152.978 517.908 149.655 518.643 146.314 518.486C142.973 518.33 139.734 517.287 136.928 515.466C134.123 513.645 131.852 511.11 130.349 508.122C129.303 506.042 128.645 503.788 128.409 501.472C127.955 501.431 127.519 501.274 127.143 501.017C126.766 500.759 126.462 500.41 126.259 500.002Z" fill="#002873"/>
<path opacity="0.1" d="M126.259 500C126.099 499.685 126.003 499.342 125.976 498.989C125.95 498.637 125.993 498.283 126.103 497.948C126.214 497.612 126.39 497.302 126.621 497.035C126.852 496.767 127.133 496.548 127.449 496.39C127.827 496.197 128.245 496.097 128.669 496.1C129.432 492.05 131.501 488.362 134.559 485.6C134.479 485.29 134.409 484.97 134.349 484.66C134.708 484.916 135.043 485.204 135.349 485.52C137.139 487.52 138.059 490.11 139.819 492.09C142.024 494.365 144.989 495.75 148.149 495.98C151.279 496.196 154.424 495.943 157.479 495.23C159.999 494.581 162.599 494.295 165.199 494.38L165.939 494.48L165.479 494.91C166.504 498.898 166.199 503.112 164.609 506.91L151.349 503.43L163.179 509.66C161.403 512.494 158.905 514.805 155.942 516.356C152.978 517.907 149.655 518.641 146.314 518.485C142.973 518.328 139.734 517.285 136.928 515.464C134.123 513.643 131.852 511.108 130.349 508.12C129.303 506.04 128.645 503.786 128.409 501.47C127.955 501.429 127.519 501.272 127.143 501.015C126.766 500.758 126.462 500.408 126.259 500Z" fill="black"/>
</g>
<path opacity="0.1" d="M346.349 51.9109C342.396 51.1604 338.308 51.6061 334.609 53.1909C332.391 54.1797 329.989 54.6907 327.559 54.6907C325.13 54.6907 322.728 54.1797 320.509 53.1909C317.887 52.0414 315.046 51.4755 312.183 51.5325C309.32 51.5895 306.504 52.2679 303.929 53.5209C302.459 54.2976 300.822 54.7059 299.159 54.7109C292.439 54.7109 286.849 47.9409 285.689 39.0109C287.029 38.0288 288.17 36.8002 289.049 35.3909C292.989 29.0409 299.049 24.9609 305.939 24.9609C312.829 24.9609 318.829 28.9609 322.769 35.2709C323.947 37.1659 325.591 38.7261 327.546 39.8014C329.5 40.8767 331.699 41.431 333.929 41.4109H334.109C339.409 41.3809 344.039 45.6709 346.349 51.9109Z" fill="#002873"/>
<path opacity="0.1" d="M366.77 23.91L355.91 30.8L362.5 18.8C360.632 17.3109 358.32 16.4874 355.93 16.46H355.76C355.007 16.4692 354.254 16.4123 353.51 16.29L349.82 18.63L351.4 15.76C348.8 14.8551 346.548 13.1592 344.96 10.91L338.35 15.04L342.51 7.47C338.66 2.84 333.46 0 327.75 0C320.9 0 314.75 4.08 310.85 10.43C309.683 12.3267 308.035 13.8809 306.074 14.9347C304.112 15.9884 301.906 16.5044 299.68 16.43H299.35C291.79 16.43 285.65 25 285.65 35.59C285.65 46.18 291.79 54.74 299.35 54.74C301.013 54.735 302.65 54.3266 304.12 53.55C306.695 52.296 309.512 51.6177 312.375 51.5625C315.238 51.5072 318.079 52.0762 320.7 53.23C322.92 54.2157 325.322 54.725 327.75 54.725C330.179 54.725 332.581 54.2157 334.8 53.23C337.401 52.1007 340.215 51.5448 343.05 51.6C345.885 51.6553 348.675 52.3203 351.23 53.55C352.689 54.3058 354.307 54.7035 355.95 54.71C363.52 54.71 369.65 46.14 369.65 35.56C369.677 31.4973 368.687 27.4924 366.77 23.91Z" fill="#002873"/>
<path opacity="0.1" d="M120.349 190.451C114.703 189.382 108.866 190.016 103.579 192.271C100.407 193.677 96.9742 194.399 93.5041 194.391C90.0341 194.382 86.6048 193.643 83.4395 192.221C79.6941 190.578 75.6365 189.77 71.5478 189.851C67.459 189.932 63.4367 190.901 59.7595 192.691C57.6563 193.799 55.3166 194.382 52.9395 194.391C43.3395 194.391 35.3495 184.721 33.6895 171.961C35.6078 170.563 37.2377 168.807 38.4895 166.791C44.1195 157.721 52.8395 151.891 62.6295 151.891C72.4195 151.891 81.0295 157.651 86.6295 166.621C88.3125 169.339 90.6707 171.576 93.4745 173.113C96.2784 174.65 99.4323 175.434 102.629 175.391H102.879C110.459 175.381 117.079 181.511 120.349 190.451Z" fill="#002873"/>
<path opacity="0.1" d="M149.55 150.4L134.03 160.24L143.45 143.11C140.78 140.979 137.476 139.8 134.06 139.76H133.81C132.732 139.776 131.654 139.695 130.59 139.52L125.35 142.91L127.61 138.81C123.881 137.507 120.66 135.056 118.41 131.81L108.99 137.81L114.92 126.91C109.41 120.3 101.99 116.25 93.8298 116.25C84.0398 116.25 75.3198 122.07 69.6898 131.14C68.0223 133.862 65.6629 136.092 62.8522 137.605C60.0415 139.118 56.8799 139.858 53.6898 139.75H53.1598C42.3498 139.75 33.5898 152 33.5898 167.12C33.5898 182.24 42.3498 194.49 53.1598 194.49C55.5385 194.484 57.8796 193.897 59.9799 192.78C63.6579 190.992 67.6805 190.025 71.7692 189.946C75.858 189.866 79.9152 190.676 83.6598 192.32C86.8252 193.742 90.2545 194.481 93.7245 194.49C97.1946 194.499 100.628 193.776 103.8 192.37C107.517 190.757 111.538 189.962 115.589 190.04C119.64 190.117 123.627 191.065 127.28 192.82C129.36 193.909 131.672 194.482 134.02 194.49C144.83 194.49 153.59 182.23 153.59 167.12C153.665 161.296 152.276 155.547 149.55 150.4Z" fill="#002873"/>
<path opacity="0.1" d="M747.971 90.9102C751.924 90.1603 756.012 90.6059 759.711 92.1902C761.928 93.1793 764.328 93.6905 766.756 93.6905C769.183 93.6905 771.584 93.1793 773.801 92.1902C776.423 91.0406 779.264 90.4747 782.127 90.5317C784.99 90.5887 787.806 91.2672 790.381 92.5202C791.852 93.2957 793.488 93.7039 795.151 93.7102C801.871 93.7102 807.471 86.9402 808.631 78.0102C807.289 77.0306 806.148 75.8015 805.271 74.3902C801.351 68.0202 795.221 63.9102 788.351 63.9102C781.481 63.9102 775.471 67.9102 771.531 74.2202C770.356 76.1236 768.709 77.6916 766.75 78.7725C764.792 79.8533 762.588 80.4105 760.351 80.3902H760.181C754.861 80.3802 750.221 84.6702 747.971 90.9102Z" fill="#002873"/>
<path opacity="0.1" d="M727.49 62.9108L738.35 69.7808L731.75 57.7808C733.62 56.293 735.931 55.4697 738.32 55.4408H738.5C739.254 55.4494 740.006 55.3926 740.75 55.2708L744.43 57.6108L742.85 54.7408C745.469 53.851 747.742 52.1616 749.35 49.9108L755.94 54.0908L751.77 46.5208C755.63 41.8908 760.77 39.0508 766.54 39.0508C773.39 39.0508 779.54 43.1308 783.44 49.4808C784.606 51.3782 786.254 52.9329 788.216 53.9868C790.178 55.0407 792.384 55.5562 794.61 55.4808H794.97C802.54 55.4808 808.67 64.0508 808.67 74.6408C808.67 85.2308 802.54 93.7908 794.97 93.7908C793.307 93.7834 791.671 93.3752 790.2 92.6008C787.625 91.3468 784.809 90.6685 781.945 90.6133C779.082 90.558 776.241 91.127 773.62 92.2808C771.402 93.2663 769.002 93.7755 766.575 93.7755C764.148 93.7755 761.748 93.2663 759.53 92.2808C756.927 91.1513 754.112 90.5953 751.275 90.6505C748.439 90.7057 745.647 91.3709 743.09 92.6008C741.631 93.3577 740.013 93.7554 738.37 93.7608C730.81 93.7608 724.67 85.1908 724.67 74.6108C724.617 70.5363 725.586 66.5135 727.49 62.9108Z" fill="#002873"/>
<path opacity="0.1" d="M615.631 776.879C679.144 776.879 730.631 767.925 730.631 756.879C730.631 745.833 679.144 736.879 615.631 736.879C552.118 736.879 500.631 745.833 500.631 756.879C500.631 767.925 552.118 776.879 615.631 776.879Z" fill="#002873"/>
<path d="M555.44 661.879L377.25 659.589L377.78 655.019L386.39 579.629H542.88L554.39 655.019L555.27 660.739L555.44 661.879Z" fill="#D0D2D5"/>
<path opacity="0.1" d="M555.27 660.74H466.35L377.25 659.59L377.78 655.02H554.39L555.27 660.74Z" fill="black"/>
<path d="M584.001 656.172H347.551V661.882H584.001V656.172Z" fill="#D0D2D5"/>
<path d="M809.59 126.83C809.603 122.89 808.052 119.105 805.277 116.308C802.502 113.51 798.73 111.929 794.79 111.91H134.47C132.517 111.919 130.585 112.313 128.785 113.069C126.984 113.825 125.35 114.928 123.976 116.315C122.602 117.702 121.514 119.347 120.775 121.154C120.036 122.962 119.661 124.897 119.67 126.85V527.1H809.59V126.83Z" fill="#3F3D56"/>
<path d="M119.67 523.102V569.982C119.67 573.907 121.229 577.671 124.005 580.447C126.78 583.222 130.545 584.782 134.47 584.782H794.79C798.715 584.782 802.48 583.222 805.255 580.447C808.031 577.671 809.59 573.907 809.59 569.982V523.102H119.67Z" fill="#D0D2D5"/>
<path d="M784.461 137.012H148.23V496.822H784.461V137.012Z" fill="white"/>
<path d="M468.061 566.989C470.397 566.991 472.703 566.462 474.805 565.442C476.906 564.421 478.748 562.936 480.191 561.099C480.629 560.539 481.03 559.951 481.391 559.339L472.921 557.909L482.071 557.969C482.948 556.06 483.426 553.993 483.476 551.894C483.526 549.794 483.146 547.706 482.361 545.759L470.091 552.119L481.411 543.799C480.347 541.971 478.92 540.382 477.217 539.13C475.514 537.877 473.571 536.989 471.51 536.519C469.448 536.049 467.313 536.008 465.235 536.398C463.157 536.788 461.182 537.602 459.432 538.788C457.682 539.974 456.194 541.507 455.061 543.292C453.929 545.077 453.176 547.076 452.848 549.165C452.521 551.253 452.626 553.387 453.158 555.433C453.69 557.479 454.637 559.394 455.941 561.059C457.378 562.902 459.217 564.394 461.317 565.422C463.417 566.449 465.723 566.985 468.061 566.989Z" fill="#002873"/>
<path opacity="0.1" d="M483.48 584.77L554.57 656.169L543.66 584.77H483.48Z" fill="black"/>
<path opacity="0.1" d="M784.651 137.051H147.73V158.071H784.651V137.051Z" fill="#444053"/>
<path opacity="0.3" d="M560.189 140.711H369.449C369.129 140.711 368.869 140.971 368.869 141.291V152.921C368.869 153.241 369.129 153.501 369.449 153.501H560.189C560.509 153.501 560.769 153.241 560.769 152.921V141.291C560.769 140.971 560.509 140.711 560.189 140.711Z" fill="#002873"/>
<path d="M555.069 148.429H554.599L554.429 148.279C555.011 147.58 555.33 146.699 555.329 145.789C555.323 145.042 555.097 144.314 554.677 143.696C554.258 143.078 553.665 142.599 552.973 142.317C552.281 142.036 551.522 141.966 550.79 142.116C550.059 142.266 549.388 142.63 548.863 143.16C548.337 143.691 547.981 144.366 547.839 145.099C547.697 145.832 547.774 146.591 548.063 147.279C548.351 147.968 548.838 148.556 549.46 148.969C550.082 149.382 550.813 149.601 551.559 149.599C552.47 149.596 553.351 149.274 554.049 148.689L554.219 148.839V149.309L557.149 152.239L558.019 151.359L555.069 148.429ZM551.559 148.429C551.037 148.431 550.525 148.278 550.09 147.989C549.655 147.7 549.315 147.289 549.113 146.806C548.912 146.324 548.858 145.793 548.959 145.28C549.06 144.767 549.31 144.296 549.679 143.926C550.048 143.556 550.518 143.303 551.031 143.201C551.543 143.098 552.074 143.15 552.557 143.349C553.04 143.549 553.453 143.887 553.744 144.321C554.034 144.756 554.189 145.266 554.189 145.789C554.192 146.136 554.126 146.479 553.995 146.8C553.864 147.121 553.67 147.413 553.426 147.658C553.181 147.904 552.89 148.098 552.57 148.231C552.249 148.363 551.906 148.43 551.559 148.429Z" fill="#3F3D56"/>
<path opacity="0.8" d="M159.18 151.411C161.306 151.411 163.03 149.687 163.03 147.561C163.03 145.435 161.306 143.711 159.18 143.711C157.054 143.711 155.33 145.435 155.33 147.561C155.33 149.687 157.054 151.411 159.18 151.411Z" fill="#FA5959"/>
<path opacity="0.8" d="M169.77 151.411C171.896 151.411 173.62 149.687 173.62 147.561C173.62 145.435 171.896 143.711 169.77 143.711C167.644 143.711 165.92 145.435 165.92 147.561C165.92 149.687 167.644 151.411 169.77 151.411Z" fill="#FED253"/>
<path opacity="0.8" d="M180.37 151.411C182.496 151.411 184.22 149.687 184.22 147.561C184.22 145.435 182.496 143.711 180.37 143.711C178.243 143.711 176.52 145.435 176.52 147.561C176.52 149.687 178.243 151.411 180.37 151.411Z" fill="#8CCF4D"/>
<path d="M500.051 291.4C491.321 279.8 478.671 272.48 464.591 272.48C450.511 272.48 437.861 279.8 429.131 291.4C431.061 296.134 433.916 300.435 437.531 304.05C441.997 308.515 447.499 311.805 453.545 313.627C459.591 315.45 465.994 315.748 472.184 314.496C478.374 313.243 484.157 310.479 489.019 306.45C493.882 302.42 497.671 297.25 500.051 291.4Z" fill="#002873"/>
<path d="M424.519 298.188C423.897 297.921 423.307 297.585 422.759 297.188C421.93 296.509 421.267 295.651 420.819 294.678C421.391 293.503 421.632 292.194 421.514 290.892C421.397 289.59 420.927 288.345 420.154 287.29C419.381 286.236 418.335 285.413 417.129 284.91C415.923 284.406 414.602 284.241 413.309 284.433C412.016 284.625 410.8 285.167 409.792 285.999C408.784 286.831 408.022 287.923 407.589 289.156C407.156 290.389 407.068 291.717 407.334 292.997C407.6 294.277 408.21 295.46 409.099 296.418C409.6 296.95 410.172 297.411 410.799 297.788C411.613 298.259 412.276 298.953 412.709 299.788C413.527 301.44 414.654 302.92 416.029 304.148C417.44 305.358 418.963 306.43 420.579 307.348C418.355 313.643 417.094 320.237 416.839 326.908C414.253 326.952 411.687 327.366 409.219 328.138C407.955 328.531 406.763 329.125 405.689 329.898C405.4 329.863 405.11 329.843 404.819 329.838C403.507 329.838 402.22 330.197 401.097 330.876C399.974 331.555 399.059 332.529 398.45 333.691C397.841 334.854 397.562 336.16 397.642 337.47C397.723 338.78 398.161 340.042 398.908 341.121C399.654 342.2 400.682 343.054 401.88 343.59C403.077 344.126 404.399 344.325 405.701 344.164C407.003 344.003 408.237 343.488 409.268 342.677C410.298 341.865 411.087 340.786 411.549 339.558C411.833 338.766 412.329 338.067 412.984 337.538C413.638 337.009 414.425 336.67 415.259 336.558C415.873 336.484 416.491 336.444 417.109 336.438C417.968 345.848 420.887 354.953 425.659 363.108C421.419 366.398 418.809 369.988 417.709 373.968C417.504 374.082 417.312 374.22 417.139 374.378C416.838 374.614 416.557 374.875 416.299 375.158C415.442 376.1 414.851 377.254 414.587 378.499C414.323 379.745 414.395 381.039 414.796 382.248C415.197 383.457 415.912 384.537 416.868 385.379C417.824 386.22 418.987 386.792 420.237 387.036C421.487 387.28 422.779 387.187 423.981 386.766C425.184 386.346 426.252 385.613 427.078 384.643C427.904 383.674 428.457 382.502 428.68 381.248C428.903 379.994 428.789 378.703 428.349 377.508C428.022 376.64 427.959 375.695 428.167 374.791C428.375 373.888 428.846 373.066 429.519 372.428C429.999 371.978 430.519 371.498 431.219 370.968C439.329 380.438 448.979 386.508 461.029 387.228V322.978C445.099 322.108 431.219 311.738 424.519 298.188ZM524.349 329.908C524.058 329.912 523.768 329.932 523.479 329.968C522.394 329.212 521.205 328.62 519.949 328.208C517.482 327.433 514.915 327.019 512.329 326.978C512.052 320.313 510.791 313.725 508.589 307.428C510.205 306.51 511.728 305.438 513.139 304.228C514.558 302.93 515.724 301.381 516.579 299.658C516.98 298.91 517.597 298.3 518.349 297.908C519.569 297.222 520.562 296.195 521.206 294.952C521.85 293.71 522.116 292.306 521.973 290.914C521.83 289.522 521.283 288.202 520.399 287.117C519.516 286.031 518.334 285.228 517 284.805C515.666 284.382 514.238 284.358 512.89 284.736C511.543 285.115 510.335 285.878 509.416 286.934C508.497 287.989 507.906 289.29 507.717 290.676C507.527 292.063 507.747 293.475 508.349 294.738C507.909 295.716 507.244 296.576 506.409 297.248C505.848 297.712 505.26 298.142 504.649 298.538C497.949 312.078 484.079 322.158 468.169 323.028V387.338C480.169 386.618 489.879 380.518 497.979 371.078C498.609 371.578 499.139 372.028 499.589 372.448C500.291 373.099 500.785 373.942 501.009 374.873C501.233 375.803 501.177 376.779 500.849 377.678C500.411 378.872 500.299 380.16 500.522 381.412C500.746 382.664 501.298 383.834 502.122 384.802C502.946 385.77 504.012 386.503 505.212 386.924C506.412 387.345 507.702 387.44 508.95 387.199C510.199 386.958 511.361 386.39 512.318 385.553C513.275 384.716 513.992 383.64 514.397 382.434C514.802 381.229 514.879 379.938 514.621 378.693C514.363 377.448 513.779 376.293 512.929 375.348C512.672 375.065 512.39 374.804 512.089 374.568C511.759 374.308 511.519 374.158 511.519 374.158C510.419 370.158 507.819 366.588 503.519 363.298C508.291 355.143 511.21 346.038 512.069 336.628C512.661 336.635 513.252 336.675 513.839 336.748C514.69 336.858 515.497 337.195 516.174 337.722C516.851 338.25 517.374 338.949 517.689 339.748C518.286 341.27 519.385 342.542 520.803 343.355C522.221 344.167 523.874 344.472 525.489 344.218C527.104 343.963 528.584 343.166 529.684 341.957C530.784 340.748 531.438 339.2 531.539 337.568C531.589 336.588 531.441 335.609 531.103 334.688C530.765 333.767 530.245 332.924 529.574 332.208C528.902 331.493 528.094 330.921 527.196 330.526C526.298 330.13 525.33 329.92 524.349 329.908Z" fill="#002873"/>
<path d="M681 745.222C680.419 744.301 679.686 743.486 678.83 742.812C674.46 738.682 672.43 732.622 671.35 726.682C670.27 720.742 669.96 714.682 668.23 708.872C667.289 705.893 666.112 702.993 664.71 700.202C663.71 698.062 662.45 693.872 660.62 692.372C660.261 692.061 659.827 691.851 659.36 691.762C658.496 689.924 657.264 688.284 655.74 686.942C652.88 684.352 649.39 682.292 647.48 678.942C646.955 677.78 646.308 676.677 645.55 675.652C644.26 674.232 642.22 673.652 641.03 672.152C639.48 670.212 639.83 667.432 640.03 664.962C640.23 662.492 640.03 659.532 637.89 658.232C636.61 657.442 634.96 657.522 633.63 656.822C631.63 655.822 630.84 653.302 630.88 651.052C630.92 648.802 631.62 646.612 631.8 644.362C632.36 637.202 627.64 630.082 629.46 623.142C630.15 620.512 631.73 618.232 632.9 615.782C633.308 614.966 633.643 614.116 633.9 613.242C637.02 614.479 640.299 615.27 643.64 615.592C638.13 603.232 639.53 588.872 636.96 575.592L637.29 575.142C639.886 571.718 641.36 567.575 641.51 563.282C641.51 558.342 639.2 553.722 638.16 548.882C637.27 544.772 637.31 540.472 636.16 536.432C635.362 533.921 634.303 531.501 633 529.212C631.754 526.898 630.444 524.622 629.07 522.382C627.79 518.142 626.507 513.902 625.22 509.662C623.42 503.712 621.57 497.662 618.07 492.522C616.79 490.642 616.4 486.822 614.43 485.682C612.831 484.854 611.016 484.536 609.23 484.772C606.45 483.212 604.01 480.962 603.66 477.882C603.626 477.209 603.693 476.534 603.86 475.882H604.2C608.6 475.482 610.83 471.602 613.12 468.202C616.82 462.702 615.41 455.262 613.12 449.002C612.553 447.026 611.524 445.213 610.12 443.712C606.91 440.712 601.83 441.372 597.69 439.922C596.3 439.442 595 438.712 593.58 438.372C590.83 437.732 587.95 438.632 585.43 439.902C582.91 441.172 580.56 442.812 577.92 443.812C575.28 444.812 572.02 445.602 571.37 448.312C571.188 449.224 571.264 450.17 571.59 451.042C572.198 452.78 573.266 454.322 574.68 455.502C573.556 457.819 572.948 460.353 572.898 462.928C572.848 465.504 573.358 468.059 574.391 470.419C575.424 472.778 576.957 474.885 578.884 476.595C580.81 478.305 583.085 479.576 585.55 480.322C586.31 481.542 587.02 482.782 587.67 484.052C588.83 486.292 589.81 488.932 589.41 491.332C588.687 492.1 588.019 492.919 587.41 493.782C584.54 497.782 582.91 502.472 581.41 507.152C579.395 513.127 577.782 519.231 576.58 525.422C574.14 530.612 571.16 535.572 569.39 541.022C566.221 541.026 563.066 540.602 560.01 539.762L551.57 537.852C548.63 537.182 545.57 536.462 543.27 534.522C542.05 533.522 541.1 532.192 539.86 531.202C538.62 530.212 536.13 529.052 534.77 529.872C534.522 530.023 534.29 530.2 534.08 530.402C532.84 527.892 531.66 525.402 530.22 522.972C528.15 519.572 525.07 516.462 521.17 515.812C518.787 515.428 516.349 515.996 514.38 517.392C512.1 519.012 510.67 522.392 512.38 524.672C512.808 525.179 513.272 525.654 513.77 526.092C514.928 527.425 515.962 528.861 516.86 530.382C520.084 534.906 524.906 538.037 530.35 539.142L530 540.142C529.29 542.222 527.78 544.732 528.16 546.892L565.7 559.742C568.109 560.719 570.664 561.284 573.26 561.412C574.273 561.403 575.281 561.269 576.26 561.012V562.932V563.012C576.36 576.202 574.26 589.302 573.87 602.482C573.8 604.892 573.87 607.482 575.39 609.362C577.09 611.422 580.11 611.832 582.74 611.362C583.374 611.255 583.994 611.115 584.6 610.942C585.49 614.259 586.132 617.639 586.52 621.052L589 638.912C589.319 640.74 589.45 642.596 589.39 644.452C589.1 648.642 586.89 652.392 585.29 656.262C583.69 660.132 582.74 664.762 584.84 668.382C585.5 669.502 586.41 670.452 587 671.612C587.75 673.408 588.092 675.348 588 677.292C588.154 682.678 588.3 688.072 588.44 693.472C588.004 693.4 587.556 693.489 587.18 693.722C585.1 695.342 585.33 703.052 585.18 705.442C585.02 709.442 585.18 713.522 584.96 717.562C584.7 723.006 583.825 728.404 582.35 733.652C581.99 735.357 581.202 736.944 580.06 738.262C578.891 739.279 577.496 740.002 575.99 740.372C571.008 741.932 565.798 742.642 560.58 742.472C558.47 742.402 556.27 742.202 554.31 743.002C552.35 743.802 550.77 746.002 551.48 748.002C552.09 749.682 553.94 750.482 555.61 751.112C559.425 752.455 563.108 754.149 566.61 756.172C567.958 757.09 569.38 757.896 570.86 758.582C572.279 759.091 573.747 759.453 575.24 759.662L592.97 762.722C596.6 763.342 600.97 763.722 603.28 760.722C604.53 759.102 604.71 756.902 604.65 754.842C604.55 750.842 603.75 746.772 604.27 742.772C604.665 740.407 605.288 738.086 606.13 735.842C607.897 730.595 609.67 725.352 611.45 720.112C613.23 714.852 615.03 709.542 615.72 704.022C615.97 702.022 615.95 699.742 614.42 698.492C614.033 698.174 613.583 697.942 613.1 697.812C613.04 692.992 612.41 688.162 612.68 683.342C612.75 682.142 612.87 680.942 612.97 679.732C613.897 680.612 614.725 681.591 615.44 682.652C617.15 685.332 617.78 688.872 620.39 690.652C622.61 692.172 625.9 692.092 627.46 694.292C627.961 695.137 628.339 696.049 628.58 697.002C629.486 699.359 630.845 701.517 632.58 703.352C633.176 705.547 634.004 707.672 635.05 709.692C636.524 712.805 637.99 715.908 639.45 719.002C640.951 722.341 642.62 725.601 644.45 728.772C645.848 730.767 646.974 732.94 647.8 735.232C649.21 740.172 646.91 745.592 643.27 749.232C639.63 752.872 634.83 754.962 630.1 756.912C629.602 757.08 629.145 757.353 628.76 757.712C628.35 758.197 628.133 758.816 628.15 759.452C628.15 761.762 630.05 763.742 632.23 764.452C634.459 765.05 636.794 765.136 639.06 764.702C651.84 763.152 664.58 760.032 675.88 753.822C677.57 753.021 679.068 751.864 680.27 750.432C680.851 749.71 681.225 748.845 681.354 747.927C681.483 747.01 681.36 746.075 681 745.222Z" fill="url(#paint0_linear_2147_294)"/>
<path d="M626.99 520.972C629.123 524.245 631.123 527.598 632.99 531.032C634.298 533.303 635.36 535.706 636.16 538.202C637.32 542.202 637.29 546.472 638.16 550.552C639.16 555.352 641.5 559.932 641.5 564.852C641.347 569.115 639.872 573.224 637.28 576.612C634.695 579.97 631.736 583.023 628.46 585.712C620.909 566.149 616.69 545.459 615.98 524.502C615.88 521.602 615.86 518.612 616.92 515.902C617.57 514.202 620.69 509.542 622.7 511.372C623.43 512.042 623.62 515.062 624.07 516.072C624.913 517.779 625.889 519.418 626.99 520.972Z" fill="#2F2E41"/>
<path opacity="0.1" d="M626.99 520.972C629.123 524.245 631.123 527.598 632.99 531.032C634.298 533.303 635.36 535.706 636.16 538.202C637.32 542.202 637.29 546.472 638.16 550.552C639.16 555.352 641.5 559.932 641.5 564.852C641.347 569.115 639.872 573.224 637.28 576.612C634.695 579.97 631.736 583.023 628.46 585.712C620.909 566.149 616.69 545.459 615.98 524.502C615.88 521.602 615.86 518.612 616.92 515.902C617.57 514.202 620.69 509.542 622.7 511.372C623.43 512.042 623.62 515.062 624.07 516.072C624.913 517.779 625.889 519.418 626.99 520.972Z" fill="black"/>
<path d="M363.35 384.542C355.44 392.442 354.49 395.922 349.74 397.492C344.99 399.062 327.9 407.912 333.27 417.722L347.71 427.262L348.13 427.542L350.34 434.182L328.5 473.062C328.5 473.062 292.5 456.602 288.97 480.952C285.44 505.302 287.68 511.952 286.73 524.952C285.78 537.952 287.04 541.712 283.87 541.712C280.7 541.712 279.45 533.172 279.45 533.172C279.45 533.172 279.25 532.782 278.9 532.052C274.19 522.262 242.22 450.392 293.43 400.992C293.43 400.992 317.15 399.432 322.86 372.232C326.8 353.432 340.58 355.052 349.74 358.882C352.718 360.049 355.492 361.679 357.96 363.712C360.182 365.815 362.158 368.164 363.85 370.712C366.46 374.832 367.88 380.002 363.35 384.542Z" fill="#D0D2D5"/>
<path opacity="0.1" d="M348.131 427.539L350.341 434.179L328.501 473.059C328.501 473.059 292.501 456.599 288.971 480.949C285.441 505.299 287.681 511.949 286.731 524.949C285.781 537.949 287.041 541.709 283.871 541.709C280.701 541.709 279.451 533.169 279.451 533.169C279.451 533.169 279.251 532.779 278.901 532.049C277.311 519.889 269.251 448.759 298.471 452.539C298.471 452.539 322.181 463.619 325.971 459.199C328.971 455.699 342.291 435.569 347.711 427.309L348.131 427.539Z" fill="black"/>
<path opacity="0.1" d="M363.85 370.648L349.41 387.058C349.41 387.058 332.64 409.498 329.16 408.548C328.118 408.321 327.057 408.197 325.99 408.178C324.829 408.089 323.718 407.673 322.783 406.978C321.849 406.283 321.131 405.338 320.713 404.251C320.294 403.165 320.192 401.982 320.418 400.84C320.644 399.698 321.189 398.643 321.99 397.798C327.71 391.798 338.25 380.408 338.94 377.878C339.63 375.348 346.34 364.258 349.7 358.828C352.677 359.995 355.452 361.626 357.92 363.658C360.155 365.756 362.145 368.101 363.85 370.648Z" fill="black"/>
<path d="M772.409 606.74C769.959 611.64 757.409 630.02 751.919 638.05L749.349 641.83C749.349 641.83 748.349 648.47 731.959 640.24C715.569 632.01 330.479 469.52 330.479 469.52L327.869 461.68L346.869 433.23L768.939 596.3C768.939 596.3 775.579 600.41 772.409 606.74Z" fill="#454B69"/>
<path opacity="0.1" d="M751.919 638.05L749.349 641.83C749.349 641.83 748.349 648.47 731.959 640.24C715.569 632.01 330.479 469.52 330.479 469.52L327.869 461.68L751.919 638.05Z" fill="black"/>
<path d="M519.639 531.911C515.729 531.271 511.389 531.581 508.349 534.121C506.512 535.677 505.35 537.885 505.109 540.281C504.849 543.051 506.459 546.341 509.239 546.551C509.908 546.559 510.577 546.515 511.239 546.421C512.996 546.414 514.749 546.561 516.479 546.861C519.885 547.181 523.318 546.68 526.49 545.4C529.662 544.119 532.481 542.096 534.709 539.501C537.099 536.501 533.949 535.201 531.129 534.601C527.269 533.781 523.499 532.531 519.639 531.911Z" fill="#FBBEBE"/>
<path d="M586.52 622.219L589 639.839C589.316 641.657 589.443 643.504 589.38 645.349C589.09 649.499 586.88 653.219 585.29 657.059C583.7 660.899 582.73 665.499 584.84 669.059C585.49 670.169 586.4 671.119 586.99 672.269C587.74 674.047 588.082 675.971 587.99 677.899L588.67 702.899C596.39 703.425 604.137 703.382 611.85 702.769C612.152 702.783 612.449 702.691 612.69 702.509C612.894 702.25 612.997 701.927 612.98 701.599C613.32 695.749 612.3 689.889 612.63 684.039C612.75 681.899 613.05 679.769 613.09 677.619C613.21 668.909 608.91 660.379 610.21 651.769C610.618 649.596 611.153 647.449 611.81 645.339C615.92 630.339 615.05 614.579 614.14 599.089C614.156 598.839 614.085 598.592 613.94 598.389C613.793 598.241 613.605 598.14 613.4 598.099C609.025 596.786 604.399 596.546 599.912 597.399C595.424 598.252 591.208 600.172 587.62 602.999C586.53 603.879 583.78 604.729 583.06 605.779C582.06 607.239 583.37 608.699 583.95 610.249C585.235 614.135 586.097 618.148 586.52 622.219Z" fill="#3F3D56"/>
<path opacity="0.1" d="M586.52 622.219L589 639.839C589.316 641.657 589.443 643.504 589.38 645.349C589.09 649.499 586.88 653.219 585.29 657.059C583.7 660.899 582.73 665.499 584.84 669.059C585.49 670.169 586.4 671.119 586.99 672.269C587.74 674.047 588.082 675.971 587.99 677.899L588.67 702.899C596.39 703.425 604.137 703.382 611.85 702.769C612.152 702.783 612.449 702.691 612.69 702.509C612.894 702.25 612.997 701.927 612.98 701.599C613.32 695.749 612.3 689.889 612.63 684.039C612.75 681.899 613.05 679.769 613.09 677.619C613.21 668.909 608.91 660.379 610.21 651.769C610.618 649.596 611.153 647.449 611.81 645.339C615.92 630.339 615.05 614.579 614.14 599.089C614.156 598.839 614.085 598.592 613.94 598.389C613.793 598.241 613.605 598.14 613.4 598.099C609.025 596.786 604.399 596.546 599.912 597.399C595.424 598.252 591.208 600.172 587.62 602.999C586.53 603.879 583.78 604.729 583.06 605.779C582.06 607.239 583.37 608.699 583.95 610.249C585.235 614.135 586.097 618.148 586.52 622.219Z" fill="black"/>
<path d="M632.89 616.91C631.72 619.34 630.15 621.6 629.45 624.21C627.63 631.1 632.34 638.21 631.78 645.27C631.6 647.5 630.91 649.67 630.86 651.9C630.81 654.13 631.63 656.61 633.61 657.64C634.94 658.32 636.61 658.25 637.86 659.03C639.97 660.32 640.21 663.25 640 665.71C639.79 668.17 639.44 670.92 641 672.84C642.19 674.33 644.23 674.91 645.51 676.32C646.271 677.332 646.919 678.426 647.44 679.58C649.35 682.92 652.84 684.96 655.7 687.58C658.56 690.2 660.98 694.04 659.7 697.67C658.76 700.33 656.12 701.97 653.58 703.22C648.946 705.511 644.054 707.24 639.01 708.37C638.468 708.534 637.896 708.565 637.34 708.46C636.777 708.255 636.275 707.911 635.88 707.46C632.93 704.57 629.88 701.54 628.52 697.65C628.278 696.707 627.901 695.805 627.4 694.97C625.84 692.78 622.55 692.86 620.33 691.35C617.73 689.58 617.1 686.07 615.4 683.42C613.7 680.77 611.21 679.19 609.4 676.86C606.34 672.98 605.59 667.8 603.4 663.37C602.47 661.49 601.28 659.73 600.54 657.77C599.793 655.421 599.333 652.99 599.17 650.53C597.76 638.85 594.17 627.09 596.43 615.53C596.93 612.99 597.7 610.53 598.02 607.91C598.57 603.38 597.7 598.74 598.37 594.22C598.386 593.653 598.531 593.096 598.792 592.592C599.053 592.089 599.425 591.65 599.88 591.31C600.42 591.068 601.008 590.948 601.6 590.96C607.528 590.643 613.472 590.777 619.38 591.36C622.38 591.65 625.74 592.26 627.54 594.71C629.07 596.81 628.99 599.62 629.48 602.17C630.09 605.31 631.68 607.02 633.35 609.48C635.02 611.94 634.12 614.37 632.89 616.91Z" fill="#3F3D56"/>
<path d="M609.82 698.17C611.4 698.17 613.15 698.07 614.37 699.07C615.89 700.32 615.91 702.61 615.67 704.56C614.97 710.04 613.18 715.31 611.39 720.56L606.07 736.17C605.228 738.398 604.605 740.702 604.21 743.05C603.69 747.05 604.49 751.05 604.59 755.05C604.59 757.05 604.46 759.27 603.21 760.88C600.95 763.79 596.54 763.45 592.91 762.88L575.2 759.88C573.706 759.681 572.238 759.322 570.82 758.81C569.342 758.128 567.921 757.328 566.57 756.42C563.066 754.418 559.383 752.744 555.57 751.42C553.91 750.8 552.05 750.01 551.45 748.34C550.74 746.34 552.32 744.14 554.28 743.34C556.24 742.54 558.43 742.74 560.55 742.8C565.764 742.966 570.968 742.263 575.95 740.72C577.451 740.352 578.843 739.632 580.01 738.62C581.197 737.287 582.005 735.661 582.35 733.91C583.859 728.698 584.759 723.329 585.03 717.91C585.24 713.91 585.1 709.91 585.26 705.91C585.36 703.54 585.13 695.91 587.21 694.28C588.8 693.06 595.34 696.43 597.49 696.92C601.533 697.846 605.674 698.266 609.82 698.17Z" fill="#2F2E41"/>
<path d="M668.16 709.291C669.89 715.021 670.16 721.081 671.28 726.971C672.4 732.861 674.38 738.871 678.75 742.971C679.6 743.646 680.333 744.457 680.92 745.371C681.289 746.227 681.414 747.169 681.281 748.092C681.149 749.015 680.764 749.883 680.17 750.601C678.962 752.024 677.466 753.172 675.78 753.971C664.49 760.131 651.78 763.241 638.97 764.781C636.706 765.205 634.376 765.12 632.15 764.531C629.97 763.791 628.04 761.831 628.08 759.531C628.058 758.9 628.272 758.284 628.68 757.801C629.069 757.445 629.529 757.176 630.03 757.011C634.75 755.071 639.54 752.961 643.19 749.381C646.84 745.801 649.13 740.381 647.72 735.521C646.885 733.245 645.751 731.089 644.35 729.111C642.521 725.967 640.853 722.733 639.35 719.421L634.95 710.191C633.66 707.491 632.36 704.711 632.14 701.731C637.667 701.979 643.187 701.094 648.36 699.131C650.774 698.146 653.024 696.797 655.03 695.131C656.73 693.711 658.28 691.061 660.57 692.911C662.41 694.391 663.57 698.561 664.65 700.671C666.053 703.444 667.226 706.327 668.16 709.291Z" fill="#2F2E41"/>
<path d="M603.679 480.098C604.119 483.938 607.839 486.468 611.389 487.988L588.919 495.158C590.369 492.378 589.199 488.978 587.759 486.158C586.586 483.925 585.249 481.783 583.759 479.748C583.539 479.438 583.289 479.048 583.449 478.688C583.592 478.453 583.816 478.279 584.079 478.198C588.699 476.138 593.459 474.008 598.509 473.258C599.969 473.048 602.729 472.468 603.819 473.948C604.909 475.428 603.469 478.328 603.679 480.098Z" fill="#FBBEBE"/>
<path opacity="0.1" d="M603.679 480.098C604.119 483.938 607.839 486.468 611.389 487.988L588.919 495.158C590.369 492.378 589.199 488.978 587.759 486.158C586.586 483.925 585.249 481.783 583.759 479.748C583.539 479.438 583.289 479.048 583.449 478.688C583.592 478.453 583.816 478.279 584.079 478.198C588.699 476.138 593.459 474.008 598.509 473.258C599.969 473.048 602.729 472.468 603.819 473.948C604.909 475.428 603.469 478.328 603.679 480.098Z" fill="black"/>
<path d="M590.62 483.209C600.351 483.209 608.24 475.32 608.24 465.589C608.24 455.857 600.351 447.969 590.62 447.969C580.889 447.969 573 455.857 573 465.589C573 475.32 580.889 483.209 590.62 483.209Z" fill="#FBBEBE"/>
<path d="M575.35 610.588C577.06 612.638 580.07 613.038 582.7 612.588C588.85 611.588 593.88 607.058 599.9 605.428C607.28 603.428 615.09 605.998 622.06 609.148C629.03 612.298 635.96 616.148 643.58 616.688C636.69 601.328 640.63 582.848 634.04 567.358C632.43 563.568 630.18 559.918 629.82 555.818C629.37 550.728 631.91 545.818 632.3 540.758C632.66 536.248 631.3 531.758 630 527.458C628.393 522.178 626.786 516.898 625.18 511.618C623.38 505.708 621.53 499.698 618.04 494.618C616.75 492.748 616.36 488.958 614.4 487.828C610.12 485.358 603.63 488.468 598.99 488.638C594.35 488.808 590.12 492.108 587.41 495.838C584.54 499.778 582.91 504.468 581.41 509.108C579.021 516.017 577.238 523.121 576.08 530.338C575.93 531.418 575.8 532.498 575.7 533.588C574.7 543.858 576.16 554.188 576.24 564.508V564.578C576.34 577.668 574.24 590.678 573.85 603.758C573.81 606.148 573.87 608.758 575.35 610.588Z" fill="#2F2E41"/>
<path opacity="0.1" d="M576.269 564.519C579.719 563.649 582.839 561.419 585.519 558.979C587.841 556.902 589.902 554.551 591.659 551.979C593.872 548.521 595.649 544.803 596.949 540.909C600.652 530.496 603.004 519.651 603.949 508.639C604.209 505.639 604.289 502.419 602.499 500.039C601.494 498.75 600.083 497.839 598.494 497.454C596.905 497.069 595.233 497.233 593.749 497.919C591.389 499.069 589.859 501.399 588.439 503.629C585.629 508.049 582.799 512.529 580.989 517.449C580.189 519.629 579.599 521.869 578.819 524.059C578.026 526.219 577.111 528.332 576.079 530.389C575.929 531.469 575.799 532.549 575.699 533.639C574.769 543.909 576.189 554.199 576.269 564.519Z" fill="black"/>
<path d="M602.451 498.11C604.241 500.49 604.161 503.74 603.911 506.7C602.967 517.712 600.615 528.557 596.911 538.97C595.621 542.896 593.844 546.646 591.621 550.13C589.86 552.7 587.799 555.05 585.481 557.13C582.081 560.23 577.941 563 573.331 563.04C570.736 562.918 568.18 562.36 565.771 561.39L528.221 548.61C527.841 546.47 529.351 543.97 530.061 541.91L532.061 535.98C532.631 534.34 533.291 532.57 534.781 531.68C536.271 530.79 538.631 532.01 539.871 533C541.111 533.99 542.051 535.29 543.271 536.3C545.581 538.22 548.631 538.94 551.571 539.6L560.001 541.49C563.057 542.327 566.212 542.747 569.381 542.74C571.731 535.56 576.201 529.24 578.731 522.12C579.511 519.94 580.101 517.69 580.911 515.51C582.711 510.59 585.551 506.12 588.361 501.69C589.771 499.47 591.301 497.14 593.671 495.98C595.158 495.285 596.838 495.117 598.434 495.505C600.03 495.892 601.446 496.811 602.451 498.11Z" fill="#2F2E41"/>
<path d="M596.241 469.57C596.107 468.411 595.747 467.29 595.181 466.27C594.886 465.76 594.436 465.356 593.897 465.119C593.357 464.882 592.756 464.823 592.181 464.95C590.421 465.5 589.831 468.22 587.991 468.31C586.751 468.37 585.861 467.11 585.471 465.93C585.081 464.75 584.871 463.4 583.941 462.57C583.293 462.086 582.55 461.745 581.761 461.57C577.491 460.22 573.081 457.73 571.661 453.48C571.326 452.618 571.247 451.677 571.431 450.77C572.081 448.08 575.431 447.27 577.981 446.3C580.531 445.33 582.981 443.67 585.481 442.41C587.981 441.15 590.881 440.26 593.631 440.9C595.026 441.339 596.398 441.85 597.741 442.43C601.881 443.87 606.951 443.2 610.161 446.19C611.563 447.674 612.592 449.47 613.161 451.43C615.401 457.65 616.821 465.03 613.111 470.49C610.821 473.86 608.601 477.71 604.201 478.12C599.081 478.55 597.051 473.91 596.241 469.57Z" fill="#2F2E41"/>
<g opacity="0.1">
<path d="M588.42 463.811C588.03 462.631 587.82 461.281 586.9 460.451C586.252 459.967 585.509 459.626 584.72 459.451C580.44 458.101 576.04 455.611 574.61 451.361C574.284 450.496 574.208 449.557 574.39 448.651C574.488 448.224 574.668 447.82 574.92 447.461C573.29 448.171 571.87 449.111 571.47 450.771C571.286 451.678 571.366 452.618 571.7 453.481C573.12 457.731 577.53 460.221 581.8 461.571C582.589 461.746 583.332 462.087 583.98 462.571C584.91 463.401 585.11 464.741 585.51 465.931C585.91 467.121 586.79 468.371 588.03 468.311C589.27 468.251 589.87 467.121 590.66 466.171C589.57 466.031 588.78 464.911 588.42 463.811Z" fill="black"/>
<path d="M607.14 475.97C602 476.44 599.97 471.76 599.14 467.45C599.03 466.294 598.69 465.172 598.14 464.15C597.844 463.641 597.394 463.238 596.855 463.001C596.316 462.764 595.715 462.704 595.14 462.83C594.227 463.273 593.461 463.967 592.93 464.83C593.389 464.874 593.831 465.023 594.223 465.266C594.615 465.509 594.946 465.839 595.19 466.23C595.756 467.25 596.116 468.371 596.25 469.53C597.06 473.84 599.09 478.53 604.25 478.05C606.289 477.825 608.172 476.848 609.53 475.31C608.775 475.662 607.968 475.885 607.14 475.97Z" fill="black"/>
</g>
<path d="M813.11 661.99C830.944 661.99 845.4 659.21 845.4 655.78C845.4 652.351 830.944 649.57 813.11 649.57C795.277 649.57 780.82 652.351 780.82 655.78C780.82 659.21 795.277 661.99 813.11 661.99Z" fill="#002873"/>
<path d="M812.571 658.059C814.647 658.059 816.331 655.856 816.331 653.139C816.331 650.422 814.647 648.219 812.571 648.219C810.494 648.219 808.811 650.422 808.811 653.139C808.811 655.856 810.494 658.059 812.571 658.059Z" fill="#3F3D56"/>
<path d="M812.571 652.039C814.647 652.039 816.331 649.836 816.331 647.119C816.331 644.402 814.647 642.199 812.571 642.199C810.494 642.199 808.811 644.402 808.811 647.119C808.811 649.836 810.494 652.039 812.571 652.039Z" fill="#3F3D56"/>
<path d="M812.571 646.031C814.647 646.031 816.331 643.829 816.331 641.111C816.331 638.394 814.647 636.191 812.571 636.191C810.494 636.191 808.811 638.394 808.811 641.111C808.811 643.829 810.494 646.031 812.571 646.031Z" fill="#3F3D56"/>
<path d="M812.571 640.012C814.647 640.012 816.331 637.809 816.331 635.092C816.331 632.375 814.647 630.172 812.571 630.172C810.494 630.172 808.811 632.375 808.811 635.092C808.811 637.809 810.494 640.012 812.571 640.012Z" fill="#3F3D56"/>
<path d="M812.571 633.988C814.647 633.988 816.331 631.786 816.331 629.068C816.331 626.351 814.647 624.148 812.571 624.148C810.494 624.148 808.811 626.351 808.811 629.068C808.811 631.786 810.494 633.988 812.571 633.988Z" fill="#3F3D56"/>
<path d="M812.571 627.981C814.647 627.981 816.331 625.778 816.331 623.061C816.331 620.343 814.647 618.141 812.571 618.141C810.494 618.141 808.811 620.343 808.811 623.061C808.811 625.778 810.494 627.981 812.571 627.981Z" fill="#3F3D56"/>
<path d="M812.571 621.961C814.647 621.961 816.331 619.758 816.331 617.041C816.331 614.324 814.647 612.121 812.571 612.121C810.494 612.121 808.811 614.324 808.811 617.041C808.811 619.758 810.494 621.961 812.571 621.961Z" fill="#3F3D56"/>
<path d="M826.639 575.911C827.152 575.257 827.62 574.569 828.039 573.851L818.159 572.231L828.849 572.301C829.87 570.07 830.426 567.654 830.484 565.201C830.543 562.748 830.102 560.309 829.189 558.031L814.849 565.471L828.069 555.751C826.829 553.616 825.162 551.759 823.173 550.295C821.184 548.831 818.915 547.793 816.508 547.244C814.1 546.695 811.605 546.647 809.178 547.103C806.751 547.56 804.444 548.51 802.4 549.897C800.357 551.283 798.62 553.075 797.299 555.161C795.977 557.247 795.099 559.583 794.719 562.023C794.339 564.463 794.466 566.956 795.09 569.345C795.715 571.734 796.824 573.969 798.349 575.911C797.546 576.927 796.855 578.027 796.289 579.191L809.119 585.861L795.439 581.271C794.484 584.105 794.25 587.132 794.758 590.08C795.266 593.027 796.5 595.801 798.349 598.151C796.263 600.807 794.966 603.996 794.607 607.354C794.247 610.711 794.839 614.103 796.316 617.14C797.792 620.177 800.093 622.738 802.956 624.529C805.818 626.32 809.127 627.27 812.504 627.27C815.881 627.27 819.19 626.32 822.053 624.529C824.916 622.738 827.217 620.177 828.693 617.14C830.169 614.103 830.762 610.711 830.402 607.354C830.042 603.996 828.745 600.807 826.659 598.151C829.158 594.978 830.517 591.056 830.517 587.016C830.517 582.977 829.158 579.055 826.659 575.881L826.639 575.911Z" fill="#002873"/>
<path opacity="0.1" d="M794.471 587.011C794.469 591.056 795.837 594.983 798.351 598.151C796.265 600.807 794.968 603.996 794.608 607.354C794.248 610.711 794.841 614.103 796.317 617.14C797.793 620.177 800.094 622.738 802.957 624.529C805.82 626.32 809.129 627.27 812.506 627.27C815.883 627.27 819.192 626.32 822.054 624.529C824.917 622.738 827.218 620.177 828.694 617.14C830.171 614.103 830.763 610.711 830.403 607.354C830.044 603.996 828.747 600.807 826.661 598.151C829.051 595.081 794.471 584.991 794.471 587.011Z" fill="black"/>
<path d="M148.42 785.81C174.095 785.81 194.91 781.807 194.91 776.87C194.91 771.932 174.095 767.93 148.42 767.93C122.744 767.93 101.93 771.932 101.93 776.87C101.93 781.807 122.744 785.81 148.42 785.81Z" fill="#002873"/>
<path d="M147.64 780.16C150.628 780.16 153.05 776.986 153.05 773.07C153.05 769.155 150.628 765.98 147.64 765.98C144.653 765.98 142.23 769.155 142.23 773.07C142.23 776.986 144.653 780.16 147.64 780.16Z" fill="#3F3D56"/>
<path d="M147.64 771.5C150.628 771.5 153.05 768.326 153.05 764.41C153.05 760.495 150.628 757.32 147.64 757.32C144.653 757.32 142.23 760.495 142.23 764.41C142.23 768.326 144.653 771.5 147.64 771.5Z" fill="#3F3D56"/>
<path d="M147.64 762.84C150.628 762.84 153.05 759.666 153.05 755.75C153.05 751.834 150.628 748.66 147.64 748.66C144.653 748.66 142.23 751.834 142.23 755.75C142.23 759.666 144.653 762.84 147.64 762.84Z" fill="#3F3D56"/>
<path d="M147.64 754.18C150.628 754.18 153.05 751.006 153.05 747.09C153.05 743.174 150.628 740 147.64 740C144.653 740 142.23 743.174 142.23 747.09C142.23 751.006 144.653 754.18 147.64 754.18Z" fill="#3F3D56"/>
<path d="M147.64 745.52C150.628 745.52 153.05 742.346 153.05 738.43C153.05 734.514 150.628 731.34 147.64 731.34C144.653 731.34 142.23 734.514 142.23 738.43C142.23 742.346 144.653 745.52 147.64 745.52Z" fill="#3F3D56"/>
<path d="M147.64 736.852C150.628 736.852 153.05 733.678 153.05 729.762C153.05 725.846 150.628 722.672 147.64 722.672C144.653 722.672 142.23 725.846 142.23 729.762C142.23 733.678 144.653 736.852 147.64 736.852Z" fill="#3F3D56"/>
<path d="M147.64 728.192C150.628 728.192 153.05 725.017 153.05 721.102C153.05 717.186 150.628 714.012 147.64 714.012C144.653 714.012 142.23 717.186 142.23 721.102C142.23 725.017 144.653 728.192 147.64 728.192Z" fill="#3F3D56"/>
<path d="M167.899 661.84C168.631 660.885 169.3 659.883 169.899 658.84L155.679 656.5L171.059 656.62C172.533 653.408 173.337 649.929 173.421 646.396C173.506 642.862 172.869 639.349 171.549 636.07L150.929 646.81L169.929 632.81C168.15 629.723 165.754 627.036 162.89 624.916C160.026 622.796 156.756 621.289 153.284 620.49C149.811 619.69 146.212 619.614 142.709 620.268C139.206 620.921 135.876 622.289 132.925 624.287C129.975 626.285 127.468 628.869 125.561 631.879C123.654 634.888 122.387 638.259 121.84 641.78C121.294 645.301 121.479 648.896 122.383 652.343C123.288 655.789 124.894 659.012 127.099 661.81C125.931 663.27 124.925 664.853 124.099 666.53L142.569 676.13L122.879 669.52C121.499 673.618 121.166 677.997 121.91 682.256C122.654 686.516 124.452 690.522 127.139 693.91C124.131 697.735 122.259 702.329 121.738 707.167C121.217 712.006 122.069 716.893 124.195 721.27C126.321 725.648 129.635 729.338 133.76 731.92C137.885 734.503 142.653 735.872 147.519 735.872C152.386 735.872 157.154 734.503 161.278 731.92C165.403 729.338 168.718 725.648 170.844 721.27C172.97 716.893 173.821 712.006 173.3 707.167C172.78 702.329 170.908 697.735 167.899 693.91C171.495 689.341 173.45 683.695 173.45 677.88C173.45 672.065 171.495 666.419 167.899 661.85V661.84Z" fill="#002873"/>
<path opacity="0.1" d="M121.59 677.911C121.591 683.717 123.546 689.353 127.14 693.911C124.131 697.736 122.259 702.33 121.739 707.169C121.218 712.007 122.069 716.894 124.195 721.272C126.321 725.649 129.636 729.34 133.761 731.922C137.886 734.504 142.654 735.873 147.52 735.873C152.386 735.873 157.154 734.504 161.279 731.922C165.404 729.34 168.718 725.649 170.844 721.272C172.97 716.894 173.822 712.007 173.301 707.169C172.78 702.33 170.909 697.736 167.9 693.911C171.35 689.491 121.59 674.961 121.59 677.911Z" fill="black"/>
</g>
<defs>
<linearGradient id="paint0_linear_2147_294" x1="601.882" y1="766.348" x2="588.646" y2="438.225" gradientUnits="userSpaceOnUse">
<stop stop-color="#808080" stop-opacity="0.25"/>
<stop offset="0.54" stop-color="#808080" stop-opacity="0.12"/>
<stop offset="1" stop-color="#808080" stop-opacity="0.1"/>
</linearGradient>
<clipPath id="clip0_2147_294">
<rect width="1022.7" height="785.81" fill="white"/>
</clipPath>
</defs>
</svg>
