<svg width="24" height="24" viewBox="0 0 24 24" fill="none" xmlns="http://www.w3.org/2000/svg">
<path d="M12 24L10.9968 22.9888C8.82676 20.7879 7.03446 18.8934 5.61987 17.3054C4.20527 15.7173 3.08058 14.3079 2.24577 13.0771C1.41095 11.8462 0.82795 10.7348 0.49677 9.74266C0.16559 8.75053 0 7.75578 0 6.75841C0 4.8403 0.584212 3.23437 1.75264 1.94064C2.92106 0.64688 4.36519 0 6.08503 0C7.26073 0 8.35101 0.328109 9.35586 0.984323C10.3607 1.64054 11.2421 2.59438 12 3.84586C12.8518 2.54241 13.7658 1.57556 14.742 0.945338C15.7181 0.315113 16.7758 0 17.915 0C19.6348 0 21.0789 0.64688 22.2474 1.94064C23.4158 3.23437 24 4.8403 24 6.75841C24 7.75578 23.8344 8.75053 23.5032 9.74266C23.1721 10.7348 22.5895 11.8453 21.7556 13.0742C20.9217 14.3031 19.797 15.7125 18.3815 17.3025C16.966 18.8924 15.1732 20.7879 13.0032 22.9888L12 24ZM12 21.8969C14.0994 19.7693 15.8269 17.9456 17.1828 16.426C18.5386 14.9064 19.6158 13.5768 20.4143 12.4373C21.2129 11.2977 21.7713 10.2846 22.0895 9.39793C22.4077 8.51125 22.5668 7.63309 22.5668 6.76344C22.5668 5.26658 22.1288 4.02957 21.2527 3.05243C20.3765 2.07529 19.2663 1.58672 17.9221 1.58672C16.8455 1.58672 15.8557 1.94261 14.9528 2.65439C14.0498 3.36619 13.2615 4.41774 12.5878 5.80905H11.3927C10.7239 4.43208 9.93809 3.38412 9.03533 2.66516C8.13257 1.9462 7.14677 1.58672 6.07792 1.58672C4.74175 1.58672 3.63359 2.07529 2.75344 3.05243C1.87327 4.02957 1.43318 5.27006 1.43318 6.77389C1.43318 7.64216 1.59294 8.52201 1.91246 9.41342C2.23197 10.3048 2.78825 11.3232 3.58128 12.4685C4.37432 13.6138 5.45546 14.9422 6.8247 16.4536C8.19393 17.9651 9.91903 19.7795 12 21.8969Z" fill="#595959"/>
</svg>
