<svg width="24" height="24" viewBox="0 0 24 24" fill="none" xmlns="http://www.w3.org/2000/svg">
<path d="M4.16843 19.166C5.42997 18.2964 6.68503 17.6223 7.9336 17.1438C9.18219 16.6652 10.5377 16.4259 12 16.4259C13.4623 16.4259 14.821 16.6652 16.0761 17.1438C17.3312 17.6223 18.5895 18.2964 19.851 19.166C20.7692 18.102 21.4514 16.9786 21.8976 15.7957C22.3437 14.6128 22.5668 13.3476 22.5668 12C22.5668 9.02025 21.5506 6.51416 19.5182 4.48176C17.4858 2.44937 14.9798 1.43318 12 1.43318C9.02024 1.43318 6.51416 2.44937 4.48176 4.48176C2.44937 6.51416 1.43318 9.02025 1.43318 12C1.43318 13.3476 1.6595 14.6128 2.11213 15.7957C2.56476 16.9786 3.2502 18.102 4.16843 19.166ZM11.9931 12.7166C10.8576 12.7166 9.90243 12.3269 9.12754 11.5474C8.35263 10.7679 7.96518 9.81044 7.96518 8.67492C7.96518 7.53942 8.35492 6.58422 9.13439 5.80931C9.91385 5.03442 10.8713 4.64698 12.0069 4.64698C13.1424 4.64698 14.0976 5.03671 14.8725 5.81616C15.6474 6.59562 16.0348 7.5531 16.0348 8.68862C16.0348 9.82414 15.6451 10.7793 14.8656 11.5542C14.0862 12.3291 13.1287 12.7166 11.9931 12.7166ZM12.0148 24C10.3515 24 8.79104 23.6866 7.33344 23.0599C5.87586 22.4332 4.60258 21.5745 3.51361 20.4838C2.42466 19.3931 1.56683 18.1223 0.940108 16.6714C0.313369 15.2204 0 13.6625 0 11.9977C0 10.3328 0.313369 8.77571 0.940108 7.32633C1.56683 5.87694 2.42552 4.6069 3.5162 3.5162C4.6069 2.42552 5.87771 1.56683 7.32864 0.940108C8.77959 0.31337 10.3375 0 12.0023 0C13.6672 0 15.2243 0.31337 16.6737 0.940108C18.1231 1.56683 19.3931 2.42552 20.4838 3.5162C21.5745 4.6069 22.4332 5.87728 23.0599 7.32735C23.6866 8.77741 24 10.33 24 11.9852C24 13.6485 23.6866 15.209 23.0599 16.6666C22.4332 18.1241 21.5745 19.3974 20.4838 20.4864C19.3931 21.5753 18.1227 22.4332 16.6727 23.0599C15.2226 23.6866 13.67 24 12.0148 24ZM12 22.5668C13.1741 22.5668 14.332 22.3802 15.4737 22.0069C16.6154 21.6336 17.6907 21.03 18.6996 20.196C17.6907 19.4543 16.6223 18.8793 15.4943 18.4712C14.3664 18.0632 13.2016 17.8591 12 17.8591C10.7984 17.8591 9.63157 18.0611 8.49959 18.4652C7.36759 18.8692 6.30524 19.4461 5.31254 20.196C6.31334 21.03 7.3846 21.6336 8.52631 22.0069C9.66801 22.3802 10.8259 22.5668 12 22.5668ZM12.0017 11.2834C12.7568 11.2834 13.379 11.0383 13.868 10.5481C14.3571 10.0579 14.6016 9.43524 14.6016 8.6801C14.6016 7.92494 14.3565 7.30282 13.8663 6.81374C13.3761 6.32467 12.7535 6.08013 11.9983 6.08013C11.2432 6.08013 10.621 6.32524 10.132 6.81545C9.6429 7.30564 9.39836 7.92832 9.39836 8.68348C9.39836 9.43861 9.64347 10.0607 10.1337 10.5498C10.6239 11.0389 11.2465 11.2834 12.0017 11.2834Z" fill="#595959"/>
</svg>
