<svg width="24" height="24" viewBox="0 0 24 24" fill="none" xmlns="http://www.w3.org/2000/svg">
<path d="M22.5289 24L13.7611 15.2322C13.0631 15.8085 12.2604 16.2595 11.353 16.5852C10.4456 16.9109 9.50691 17.0738 8.53689 17.0738C6.15093 17.0738 4.13163 16.2477 2.47898 14.5954C0.826326 12.9432 0 10.9244 0 8.53909C0 6.15374 0.826117 4.13421 2.47835 2.48051C4.13058 0.826837 6.14938 0 8.53473 0C10.9201 0 12.9396 0.826328 14.5933 2.47898C16.247 4.13163 17.0738 6.15094 17.0738 8.53689C17.0738 9.53376 16.9065 10.4859 16.5718 11.3933C16.2371 12.3007 15.7906 13.0899 15.2322 13.7611L24 22.5289L22.5289 24ZM8.53689 14.9799C10.3356 14.9799 11.8591 14.3557 13.1074 13.1074C14.3557 11.8591 14.9799 10.3356 14.9799 8.53689C14.9799 6.73822 14.3557 5.21472 13.1074 3.96639C11.8591 2.71806 10.3356 2.0939 8.53689 2.0939C6.73822 2.0939 5.21472 2.71806 3.96639 3.96639C2.71809 5.21472 2.09393 6.73822 2.09393 8.53689C2.09393 10.3356 2.71809 11.8591 3.96639 13.1074C5.21472 14.3557 6.73822 14.9799 8.53689 14.9799Z" fill="#595959"/>
</svg>
