<svg width="614" height="701" viewBox="0 0 614 701" fill="none" xmlns="http://www.w3.org/2000/svg">
<g clip-path="url(#clip0_2146_234)">
<path d="M294.343 657.212L293.562 639.636C293.48 639.593 293.399 639.55 293.318 639.507C284.941 635.112 275.342 643.068 278.017 652.141C280.534 660.678 282.226 669.881 286.833 677.353C289.556 681.693 293.22 685.364 297.554 688.096C301.888 690.827 306.782 692.548 311.872 693.131L322.513 699.647C323.974 691.506 323.652 683.146 321.57 675.142C319.488 667.138 315.695 659.68 310.454 653.283C307.478 649.723 304.065 646.553 300.297 643.846C297.748 650.566 294.343 657.212 294.343 657.212Z" fill="#F2F2F2"/>
<path d="M199.067 478.844C178.579 457.715 148.89 445.597 117.611 445.597L116.404 445.601C95.8015 445.608 75.5665 440.144 57.7687 429.766L55.9166 428.687L57.4083 427.15C65.4839 418.795 72.227 409.248 77.4015 398.843C73.7265 402.27 69.3433 404.846 64.5622 406.391C59.7811 407.935 54.7189 408.41 49.7339 407.781C44.4711 407.154 39.4186 405.343 34.9555 402.484C30.4924 399.626 26.7345 395.793 23.9638 391.275C13.0315 373.537 0 348.369 0 329.195C0.0170178 312.988 3.41039 296.963 9.96384 282.14C16.5173 267.318 26.087 254.023 38.0631 243.104C45.645 236.267 51.701 227.91 55.8362 218.576C59.9715 209.242 62.0931 199.141 62.0629 188.932L62.0568 187.48C62.0548 174.039 63.6973 160.649 66.9476 147.607L67.2777 146.29L68.6327 146.337C77.3705 146.635 86.113 145.902 94.6795 144.155C86.6441 143.17 78.7833 141.079 71.3199 137.942L69.8623 137.352L70.357 135.859C104.458 114.745 181.434 125.679 226.114 23.4552C262.342 -59.434 390.17 97.0361 390.17 187.48C390.17 196.708 381.037 208.904 387.874 215.004C461.784 280.942 410.787 323.283 394.708 365.889C390.894 375.998 399.165 387.095 399.165 398.031C399.165 399.887 399.118 401.803 399.024 403.725L398.882 406.68L396.418 405.04C391.543 401.846 387.024 398.14 382.938 393.983C387.177 403.737 389.174 414.318 388.784 424.945C388.393 435.573 385.625 445.978 380.682 455.395C372.936 470.014 365.443 480.48 358.41 486.5C335.881 505.78 306.837 515.725 277.219 514.302C247.601 512.879 219.645 500.195 199.067 478.844Z" fill="#E6E6E6"/>
<path d="M322.807 698.781C323.311 698.78 323.798 698.598 324.178 698.268C324.558 697.938 324.806 697.481 324.877 696.983C324.966 696.358 333.678 633.529 325.854 550.027C318.628 472.91 295.424 361.836 225.915 270.612C225.748 270.393 225.54 270.209 225.302 270.07C225.065 269.932 224.802 269.841 224.529 269.804C224.257 269.767 223.979 269.784 223.713 269.855C223.447 269.925 223.198 270.047 222.979 270.214C222.76 270.38 222.576 270.589 222.438 270.826C222.3 271.064 222.21 271.327 222.173 271.6C222.136 271.872 222.154 272.15 222.224 272.416C222.295 272.682 222.417 272.931 222.584 273.15C291.494 363.586 314.511 473.845 321.685 550.417C329.464 633.434 320.82 695.772 320.732 696.393C320.69 696.69 320.712 696.992 320.798 697.28C320.883 697.568 321.028 697.834 321.225 698.06C321.422 698.287 321.665 698.468 321.938 698.592C322.211 698.717 322.507 698.781 322.807 698.781Z" fill="#3F3D56"/>
<path d="M266.083 399.285C266.526 399.285 266.957 399.146 267.314 398.886C267.672 398.626 267.939 398.26 268.076 397.84C268.213 397.419 268.213 396.966 268.076 396.545C267.94 396.125 267.674 395.758 267.316 395.498C267.064 395.315 241.635 376.993 203.619 363.073C168.477 350.207 115.037 338.544 60.0222 356.053C59.7599 356.136 59.5165 356.27 59.3059 356.447C59.0954 356.624 58.9219 356.841 58.7952 357.086C58.6686 357.33 58.5915 357.597 58.5681 357.871C58.5447 358.145 58.5757 358.421 58.6591 358.683C58.7426 358.946 58.8769 359.189 59.0544 359.399C59.2319 359.609 59.4492 359.782 59.6937 359.909C59.9382 360.035 60.2052 360.112 60.4795 360.135C60.7537 360.157 61.0297 360.126 61.2918 360.042C115.18 342.893 167.65 354.364 202.18 367.005C239.653 380.726 264.607 398.705 264.854 398.885C265.211 399.145 265.642 399.285 266.083 399.285Z" fill="#3F3D56"/>
<path d="M361.896 160.652C361.928 160.211 361.82 159.771 361.586 159.395C361.353 159.02 361.007 158.728 360.597 158.561C360.188 158.394 359.736 158.361 359.307 158.467C358.877 158.573 358.493 158.812 358.208 159.15C358.007 159.389 337.901 183.432 321.28 220.346C305.916 254.471 290.434 306.932 303.936 363.065C304.066 363.605 304.405 364.071 304.878 364.361C305.352 364.65 305.921 364.74 306.461 364.61C307.001 364.481 307.467 364.142 307.757 363.668C308.047 363.195 308.136 362.626 308.007 362.086C294.782 307.103 310.002 255.594 325.098 222.065C341.481 185.678 361.211 162.083 361.408 161.849C361.693 161.512 361.864 161.093 361.896 160.652Z" fill="#3F3D56"/>
<path d="M359.063 268.599C360.829 282.849 370.704 294.599 385.063 294.599C391.959 294.599 398.572 291.86 403.448 286.984C408.324 282.108 411.063 275.495 411.063 268.599C411.063 254.239 399.361 243.926 385.063 242.599C369.892 241.19 356.796 250.303 359.063 268.599Z" fill="#2F2E41"/>
<path d="M397.106 687.328L407.007 687.327L411.717 649.137L397.104 649.138L397.106 687.328Z" fill="#FFB6B6"/>
<path d="M396.756 697.655L427.203 697.654V697.269C427.203 694.126 425.954 691.112 423.732 688.89C421.51 686.667 418.495 685.419 415.353 685.418L409.79 681.199L399.414 685.419L396.756 685.419L396.756 697.655Z" fill="#2F2E41"/>
<path d="M358.106 687.328L368.007 687.327L372.717 649.137L358.104 649.138L358.106 687.328Z" fill="#FFB6B6"/>
<path d="M357.756 697.655L388.203 697.654V697.269C388.203 694.126 386.954 691.112 384.732 688.89C382.51 686.667 379.495 685.419 376.353 685.418L370.79 681.199L360.414 685.419L357.756 685.419L357.756 697.655Z" fill="#2F2E41"/>
<path d="M431.177 448.135L438.177 472.135L429.931 573.78C429.931 573.78 434.177 580.135 431.177 580.135C428.177 580.135 424.33 581.544 426.754 585.34C429.177 589.135 420.894 602.761 420.894 602.761L409.177 675.135L394.248 674.915C394.248 674.915 386.658 670.686 390.917 666.411C395.177 662.135 398.177 662.135 394.177 658.135C390.177 654.135 390.177 655.34 390.177 652.237C390.177 649.135 386.17 611.222 395.673 596.678L392.81 537.383L386.065 595.544L372.177 673.135L357.795 673.017C357.795 673.017 351.153 666.614 351.165 661.874C351.177 657.135 355.269 656.741 352.223 653.938C349.177 651.135 349.177 608.072 358.177 584.135C358.177 584.135 363.268 570.761 358.166 566.178C353.063 561.596 358.159 556.352 358.159 556.352C358.159 556.352 366.241 553.43 358.152 545.013C350.063 536.596 358.108 477.064 358.108 477.064C358.108 477.064 349.266 453.033 358.221 443.584C367.177 434.135 431.177 448.135 431.177 448.135Z" fill="#2F2E41"/>
<path d="M306.502 489.487L318.991 459.305L328.831 464.771L322.889 495.474C323.484 497.42 323.525 499.492 323.007 501.459C322.488 503.426 321.432 505.21 319.956 506.609C318.479 508.009 316.642 508.969 314.65 509.381C312.658 509.794 310.591 509.642 308.68 508.944C306.769 508.246 305.091 507.029 303.835 505.429C302.578 503.83 301.792 501.912 301.566 499.89C301.34 497.868 301.682 495.824 302.554 493.986C303.426 492.148 304.793 490.59 306.502 489.487Z" fill="#FFB6B6"/>
<path d="M516.077 250.816L497.074 277.383L488.729 269.83L501.473 241.271C501.334 239.242 501.764 237.214 502.715 235.416C503.665 233.617 505.098 232.119 506.853 231.091C508.608 230.062 510.615 229.544 512.649 229.593C514.682 229.643 516.662 230.258 518.364 231.371C520.067 232.484 521.426 234.05 522.287 235.893C523.149 237.735 523.48 239.782 523.242 241.802C523.004 243.822 522.208 245.736 520.942 247.329C519.676 248.921 517.992 250.129 516.077 250.816Z" fill="#FFB6B6"/>
<path d="M433.063 450.597C445.389 469.715 383.432 493.977 359.659 484.237C355.496 482.531 341.177 476.898 350.965 469.087C360.752 461.277 349.83 460.178 349.572 455.093C349.399 451.694 352.031 444.237 349.285 444.557C346.539 444.877 343.325 440.176 349.305 438.153C355.286 436.13 349.369 434.285 349.422 432.365C349.994 411.41 366.072 378.078 366.072 378.078L337.101 452.135C337.101 452.135 337.315 464.947 333.62 461.032C329.926 457.117 330.195 469.789 330.195 469.789C330.195 469.789 324.701 473.623 327.86 475.757C331.019 477.89 324.459 484.45 324.459 484.45L309.152 483.357C309.152 483.357 309.392 471.986 312.005 469.472C314.619 466.957 313.335 463 313.335 463C313.335 463 320.14 456.977 315.578 452.086C309.711 445.796 331.102 339.556 338.484 340.608C339.528 335.529 341.956 330.837 345.5 327.051C349.043 323.265 353.565 320.533 358.564 319.156L375.097 314.604L378.032 302.957H401.311L405.366 310.61L423.063 318.597C426.397 313.893 428.888 308.937 442.539 307.33C442.539 307.33 479.322 273.863 477.526 271.25C475.73 268.637 481.432 262.519 481.432 262.519C481.432 262.519 486.301 260.925 483.553 260.075C480.806 259.224 485.999 257.256 485.999 257.256C485.999 257.256 490.81 255.992 488.541 254.328C486.272 252.664 496.112 251.57 496.112 251.57L508.879 261.987L506.299 266.363C506.299 266.363 507.872 272.32 505.819 270.145C503.766 267.97 503.379 274.283 503.379 274.283C503.379 274.283 502.33 281.194 496.112 283.277C489.894 285.359 485.179 305.144 485.179 305.144C470.514 324.211 453.208 339.085 432.699 348.877C440.692 358.051 433.063 450.597 433.063 450.597Z" fill="#002873"/>
<path d="M387.937 296.143C400.67 296.143 410.992 285.82 410.992 273.087C410.992 260.354 400.67 250.031 387.937 250.031C375.203 250.031 364.881 260.354 364.881 273.087C364.881 285.82 375.203 296.143 387.937 296.143Z" fill="#FFB6B6"/>
<path d="M364.063 275.599C364.793 280.609 369.063 287.599 368.063 287.599C367.063 287.599 359.953 266.946 367.063 265.599C372.22 264.622 373.373 265.479 378.193 263.389L377.513 264.029C380.703 266.349 385.143 264.919 388.783 263.409C392.433 261.909 396.863 260.479 400.063 262.789C402.073 264.239 402.923 266.759 404.173 268.899C405.423 271.049 407.733 273.079 410.113 272.419C412.023 271.889 413.123 269.749 413.113 267.769C413.103 265.789 410.525 263.905 411.393 262.129C413.966 256.864 411.652 253.276 406.043 250.799C404.003 250.489 401.963 250.172 399.923 249.849C400.992 248.368 402.288 247.066 403.763 245.989C403.14 244.391 402.062 243.011 400.663 242.019C399.033 241.049 397.013 241.119 395.123 241.219C390.903 241.439 386.686 241.659 382.473 241.879C379.353 242.039 376.123 242.229 373.333 243.659C369.853 245.449 367.573 248.939 365.913 252.489C362.193 260.469 362.783 266.889 364.063 275.599Z" fill="#2F2E41"/>
<path d="M268.152 700.252L494.902 700.56C495.217 700.56 495.52 700.434 495.744 700.211C495.967 699.988 496.092 699.685 496.092 699.369C496.092 699.053 495.967 698.75 495.744 698.527C495.52 698.304 495.217 698.178 494.902 698.178L268.152 697.871C267.836 697.871 267.533 697.997 267.31 698.22C267.086 698.443 266.961 698.746 266.961 699.062C266.961 699.378 267.086 699.68 267.31 699.904C267.533 700.127 267.836 700.252 268.152 700.252Z" fill="#CACACA"/>
<path d="M186.142 596.462C186.56 593.589 183.551 590.773 179.421 590.172C175.291 589.571 171.605 591.413 171.187 594.286C170.769 597.159 173.778 599.975 177.908 600.576C182.038 601.177 185.724 599.335 186.142 596.462Z" fill="#E6E6E6"/>
<path d="M235.314 591.665C235.732 588.792 232.723 585.976 228.593 585.375C224.463 584.775 220.776 586.616 220.358 589.489C219.94 592.362 222.95 595.179 227.079 595.779C231.209 596.38 234.896 594.538 235.314 591.665Z" fill="#3F3D56"/>
<path d="M172.678 556.654C173.096 553.781 170.086 550.965 165.957 550.364C161.827 549.763 158.14 551.605 157.722 554.478C157.304 557.351 160.313 560.167 164.443 560.768C168.573 561.369 172.26 559.527 172.678 556.654Z" fill="#FF6584"/>
<path d="M151.311 540.349C151.331 537.711 149.86 535.562 148.025 535.548C146.191 535.534 144.687 537.661 144.667 540.299C144.647 542.936 146.118 545.085 147.953 545.099C149.788 545.113 151.291 542.986 151.311 540.349Z" fill="#E6E6E6"/>
<path d="M144.065 509.978C144.085 507.34 142.614 505.191 140.779 505.177C138.944 505.163 137.441 507.29 137.421 509.927C137.401 512.565 138.872 514.714 140.707 514.728C142.542 514.742 144.045 512.615 144.065 509.978Z" fill="#3F3D56"/>
<path d="M200.411 563.431C200.431 560.793 198.96 558.644 197.125 558.63C195.29 558.616 193.787 560.743 193.767 563.381C193.747 566.018 195.218 568.167 197.053 568.181C198.888 568.195 200.391 566.068 200.411 563.431Z" fill="#E6E6E6"/>
<path d="M176.649 575.294C176.669 572.657 175.198 570.507 173.363 570.493C171.528 570.479 170.025 572.606 170.005 575.244C169.985 577.881 171.456 580.031 173.291 580.045C175.126 580.059 176.629 577.932 176.649 575.294Z" fill="#FF6584"/>
<path d="M209.727 597.22C209.747 594.582 208.276 592.433 206.441 592.419C204.607 592.405 203.103 594.532 203.083 597.17C203.063 599.807 204.534 601.957 206.369 601.97C208.204 601.984 209.707 599.857 209.727 597.22Z" fill="#3F3D56"/>
<path d="M564.142 442.462C564.56 439.589 561.551 436.773 557.421 436.172C553.291 435.571 549.605 437.413 549.187 440.286C548.769 443.159 551.778 445.975 555.908 446.576C560.038 447.177 563.724 445.335 564.142 442.462Z" fill="#E6E6E6"/>
<path d="M613.314 437.665C613.732 434.792 610.723 431.976 606.593 431.375C602.463 430.775 598.776 432.616 598.358 435.489C597.94 438.362 600.95 441.179 605.079 441.779C609.209 442.38 612.896 440.538 613.314 437.665Z" fill="#3F3D56"/>
<path d="M550.678 402.654C551.096 399.781 548.086 396.965 543.957 396.364C539.827 395.763 536.14 397.605 535.722 400.478C535.304 403.351 538.313 406.167 542.443 406.768C546.573 407.369 550.26 405.527 550.678 402.654Z" fill="#FF6584"/>
<path d="M529.311 386.349C529.331 383.711 527.86 381.562 526.025 381.548C524.19 381.534 522.687 383.661 522.667 386.299C522.647 388.936 524.118 391.085 525.953 391.099C527.788 391.113 529.291 388.986 529.311 386.349Z" fill="#E6E6E6"/>
<path d="M522.065 355.978C522.085 353.34 520.614 351.191 518.779 351.177C516.944 351.163 515.441 353.29 515.421 355.927C515.401 358.565 516.872 360.714 518.707 360.728C520.542 360.742 522.045 358.615 522.065 355.978Z" fill="#3F3D56"/>
<path d="M578.411 409.431C578.431 406.793 576.96 404.644 575.125 404.63C573.29 404.616 571.787 406.743 571.767 409.381C571.747 412.018 573.218 414.167 575.053 414.181C576.887 414.195 578.391 412.068 578.411 409.431Z" fill="#E6E6E6"/>
<path d="M554.649 421.294C554.669 418.657 553.198 416.507 551.363 416.493C549.528 416.479 548.025 418.606 548.005 421.244C547.985 423.881 549.456 426.031 551.291 426.045C553.126 426.059 554.629 423.932 554.649 421.294Z" fill="#FF6584"/>
<path d="M587.727 443.22C587.747 440.582 586.276 438.433 584.441 438.419C582.607 438.405 581.103 440.532 581.083 443.17C581.063 445.807 582.534 447.957 584.369 447.97C586.204 447.984 587.707 445.857 587.727 443.22Z" fill="#3F3D56"/>
<path d="M381.142 157.462C381.56 154.589 378.551 151.773 374.421 151.172C370.291 150.571 366.605 152.413 366.187 155.286C365.769 158.159 368.778 160.975 372.908 161.576C377.038 162.177 380.724 160.335 381.142 157.462Z" fill="white"/>
<path d="M430.314 152.665C430.732 149.792 427.723 146.976 423.593 146.375C419.463 145.775 415.776 147.616 415.358 150.489C414.94 153.362 417.95 156.179 422.079 156.779C426.209 157.38 429.896 155.538 430.314 152.665Z" fill="#3F3D56"/>
<path d="M367.678 117.654C368.096 114.781 365.086 111.965 360.957 111.364C356.827 110.763 353.14 112.605 352.722 115.478C352.304 118.351 355.313 121.167 359.443 121.768C363.573 122.369 367.26 120.527 367.678 117.654Z" fill="#FF6584"/>
<path d="M346.311 101.349C346.331 98.7112 344.86 96.5619 343.025 96.548C341.19 96.5341 339.687 98.661 339.667 101.299C339.647 103.936 341.118 106.085 342.953 106.099C344.788 106.113 346.291 103.986 346.311 101.349Z" fill="#E6E6E6"/>
<path d="M339.065 70.9777C339.085 68.3402 337.614 66.1908 335.779 66.1769C333.944 66.163 332.441 68.2899 332.421 70.9274C332.401 73.565 333.872 75.7144 335.707 75.7282C337.542 75.7421 339.045 73.6152 339.065 70.9777Z" fill="#3F3D56"/>
<path d="M395.411 124.431C395.431 121.793 393.96 119.644 392.125 119.63C390.29 119.616 388.787 121.743 388.767 124.381C388.747 127.018 390.218 129.167 392.053 129.181C393.887 129.195 395.391 127.068 395.411 124.431Z" fill="#E6E6E6"/>
<path d="M371.649 136.294C371.669 133.657 370.198 131.507 368.363 131.493C366.528 131.479 365.025 133.606 365.005 136.244C364.985 138.881 366.456 141.031 368.291 141.045C370.126 141.059 371.629 138.932 371.649 136.294Z" fill="#FF6584"/>
<path d="M404.727 158.22C404.747 155.582 403.276 153.433 401.441 153.419C399.606 153.405 398.103 155.532 398.083 158.17C398.063 160.807 399.534 162.957 401.369 162.97C403.204 162.984 404.707 160.857 404.727 158.22Z" fill="#3F3D56"/>
</g>
<defs>
<clipPath id="clip0_2146_234">
<rect width="613.353" height="700.561" fill="white"/>
</clipPath>
</defs>
</svg>
